<svg xmlns="http://www.w3.org/2000/svg" xmlns:xlink="http://www.w3.org/1999/xlink" width="178.536" height="160" viewBox="0 0 178.536 160"><defs><clipPath id="a"><rect width="178.536" height="160" transform="translate(0 -4)" fill="none"/></clipPath></defs><g transform="translate(0 4)"><g clip-path="url(#a)"><path d="M103.883,100.565a25.417,25.417,0,0,1-.248,3.176,7.6,7.6,0,0,1-.248,1.272c-.026.078-.054.154-.085.23q.092-.221-.015.012c-.093.16-.174.325-.272.482a5.986,5.986,0,0,1-2.768,2.194c-.844.377-1.679.773-2.519,1.159-.508.233-1.017.467-1.527.7-.185.084-.371.166-.556.249-.386.173.319-.117.008-.005a1.473,1.473,0,0,0-1,1.766,1.448,1.448,0,0,0,1.766,1c1.563-.562,3.065-1.371,4.573-2.066.246-.113.5-.221.739-.339.068-.032.215-.095-.09.037-.408.175.234-.091.3-.121a6.256,6.256,0,0,0,1.069-.574,8.065,8.065,0,0,0,2.867-3.274,8.956,8.956,0,0,0,.61-2.57,29.576,29.576,0,0,0,.267-3.332c.038-1.848-2.833-1.848-2.871,0Z" transform="translate(-26.703 -27.994)" fill="#333"/><path d="M153.169,148.578a30.184,30.184,0,0,1,.215,3.4c.03,1.674-.006,3.349-.066,5.024-.136,3.779-.407,7.553-.739,11.318a1.446,1.446,0,0,0,1.435,1.435,1.465,1.465,0,0,0,1.435-1.435c.34-3.861.617-7.731.749-11.6a47.467,47.467,0,0,0-.259-8.894,1.447,1.447,0,0,0-1.766-1,1.471,1.471,0,0,0-1,1.766" transform="translate(-43.067 -41.425)" fill="#333"/><path d="M86.485,147.815a49.118,49.118,0,0,0-.323,8.7c.089,3.8.317,7.608.616,11.4.144,1.83,3.015,1.846,2.871,0-.291-3.7-.515-7.4-.609-11.115a50.012,50.012,0,0,1,.215-8.228,1.481,1.481,0,0,0-1-1.766,1.446,1.446,0,0,0-1.766,1Z" transform="translate(-24.302 -41.426)" fill="#333"/><path d="M88.587,149.263c.23-.1-.287.108-.037.016.084-.031.167-.065.25-.1.2-.072.4-.139.607-.2.48-.144.968-.265,1.458-.373,1.142-.253,2.434-.462,3.5-.6,3.123-.416,6.512-.646,9.746-.795a160.672,160.672,0,0,1,22.2.406,44.159,44.159,0,0,1,9.17,1.588c1.768.553,2.524-2.219.763-2.769a44.547,44.547,0,0,0-8.469-1.541c-3.617-.4-7.258-.588-10.9-.68a150,150,0,0,0-21.959.849,27.125,27.125,0,0,0-7.793,1.722,1.446,1.446,0,0,0-.515,1.964,1.471,1.471,0,0,0,1.964.516Z" transform="translate(-24.396 -40.681)" fill="#333"/><path d="M72.057,199.442a84.95,84.95,0,0,0-5.774,14.646c-2.373,7.357-4.4,14.825-6.3,22.314-2.305,9.049-4.412,18.15-6.4,27.274q-3.177,14.579-5.951,29.243Q44.958,307,42.671,321.141c-1.3,8.1-2.493,16.229-3.445,24.382a164.677,164.677,0,0,0-1.364,17.3,31.674,31.674,0,0,0,.31,5.431,4.25,4.25,0,0,0,1.586,3.1,10,10,0,0,0,3.053.845c1.771.365,3.558.657,5.345.933,4.87.746,9.761,1.341,14.659,1.892,9.558,1.077,19.16,2.061,28.769,2.539a181.21,181.21,0,0,0,18.276-.431c9.85-.5,19.706-1.171,29.507-2.287,4.239-.483,8.489-1.026,12.67-1.883,2.408-.494,5.3-.989,7.337-2.464,1.207-.873,1.436-2.153,1.579-3.555a35.8,35.8,0,0,0,.029-5.366c-.295-6.187-1.1-12.354-1.932-18.488-1.17-8.593-2.567-17.154-4.072-25.7q-2.636-14.952-5.733-29.818-3.177-15.308-6.84-30.509c-2.283-9.412-4.723-18.79-7.469-28.079-2.216-7.5-4.594-14.973-7.548-22.215a86.2,86.2,0,0,0-3.62-7.9c-.867-1.631-3.346-.183-2.479,1.45.637,1.2,1.23,2.419,1.794,3.653q.461,1.01.9,2.032c.215.5.126.287.344.815q.249.6.491,1.2c1.344,3.334,2.559,6.72,3.706,10.127,2.816,8.367,5.24,16.867,7.5,25.4,2.584,9.742,4.932,19.545,7.134,29.379q3.385,15.116,6.307,30.332c1.788,9.293,3.455,18.61,4.944,27.957,1.2,7.513,2.232,14.548,3.025,22.027.468,4.416,1.064,9.021.675,13.468-.014.153-.034.305-.047.457-.019.223.072-.376-.017.1-.045.239-.1.472-.16.706-.023.087-.078.174-.093.262.051-.306.193-.312.022-.1-.194.244.225-.348.094-.118-.028.049-.1.085-.138.125s.314-.191.017-.017a11.934,11.934,0,0,1-1.2.634c.408-.179-.322.118-.484.175-.3.106-.6.2-.9.3a45.123,45.123,0,0,1-4.539,1.09c-8.9,1.746-18.046,2.434-27.154,3.1-8.377.612-16.773,1.085-25.17,1.316a171.683,171.683,0,0,1-19.825-1.008c-9.992-.884-20.016-1.88-29.912-3.414-1.736-.269-3.472-.556-5.191-.916-.611-.128-1.22-.264-1.823-.431-.11-.029-.479-.205-.58-.169.155-.057.423.2.234.093-.12-.072-.228-.211.185.152-.384-.337.233.25-.081-.084-.062-.065-.072-.174-.124-.243.108.139.107.341.014.005-.072-.253-.144-.5-.2-.759-.029-.144-.055-.282-.079-.424-.011-.067-.019-.134-.032-.2-.072-.4.027.306,0,.037a77.021,77.021,0,0,1,.287-13.195c.606-7.118,1.522-14.114,2.517-21.019,1.279-8.875,2.738-17.725,4.306-26.556q2.564-14.469,5.514-28.865,2.892-14.134,6.177-28.183c1.956-8.3,4.028-16.587,6.353-24.8,1.757-6.2,3.615-12.41,5.983-18.412q.326-.828.67-1.652c-.121.287-.024.055.039-.09l.182-.423q.16-.367.327-.732c.393-.867.81-1.723,1.265-2.56.884-1.624-1.594-3.074-2.479-1.449Z" transform="translate(-10.683 -55.932)" fill="#333"/><path d="M86.192,114.428a84.946,84.946,0,0,0-8.894,4.4c-2.646,1.562-5.555,3.463-7.143,6.181a28.311,28.311,0,0,0-2.364,6.974c-.816,3.078-1.513,6.188-2.165,9.3-1.126,5.377-2.153,10.788-2.953,16.221a19.155,19.155,0,0,0-.369,3.981,6.046,6.046,0,0,0,1.615,3.685,32.185,32.185,0,0,0,6.732,5.4c6.582,4.387,13.441,8.437,20.416,12.163,1.629.87,3.081-1.607,1.449-2.479-6.1-3.256-12.065-6.788-17.888-10.513a57.551,57.551,0,0,1-6.819-4.737,9.094,9.094,0,0,1-2.471-2.78,2.973,2.973,0,0,1-.179-1.1,14.656,14.656,0,0,1,.164-2.052c.659-5,1.637-9.985,2.636-14.929a117.071,117.071,0,0,1,4.091-16.364c.988-2.751,3.561-4.566,6.035-6.084a79.579,79.579,0,0,1,9.546-4.8,1.445,1.445,0,0,0,.515-1.964,1.472,1.472,0,0,0-1.964-.515Z" transform="translate(-17.586 -32.245)" fill="#333"/><path d="M86.393,147.822c-.761,4.1-1.232,8.278-1.671,12.425-.149,1.415-.305,2.833-.322,4.256a7.5,7.5,0,0,0,0,2.267c.28.906,1.14,1.428,1.854,1.967a68.828,68.828,0,0,0,8.182,5.7c1.621.888,3.072-1.591,1.449-2.478a57.379,57.379,0,0,1-6.754-4.619c-.539-.406-1.08-.807-1.614-1.22-.111-.085-.173-.135-.275-.215-.066-.054-.124-.114-.188-.169-.164-.144.032-.008.039.072-.019-.22.044.366.083.306a1.48,1.48,0,0,0,.019-.365c.029-.415.067-.827.072-1.244a86.2,86.2,0,0,1,1-9.956c.258-1.992.528-3.987.894-5.962.335-1.806-2.431-2.58-2.768-.764" transform="translate(-23.799 -41.432)" fill="#333"/><path d="M132.276,100.566q.028,1.364.188,2.727a12.274,12.274,0,0,0,.431,2.544,7.715,7.715,0,0,0,2.512,3.452,6.539,6.539,0,0,0,2.145,1.216c-.186-.055-.439-.193-.159-.063l.39.179q1.239.57,2.479,1.142c.774.355,1.549.754,2.351,1.042a1.449,1.449,0,0,0,1.766-1,1.465,1.465,0,0,0-1-1.766c-.312-.112.394.178.009.005-.186-.083-.372-.165-.557-.249-.51-.23-1.018-.464-1.527-.7-.839-.386-1.674-.782-2.519-1.159a5.978,5.978,0,0,1-2.768-2.194c-.1-.157-.179-.322-.272-.482q-.107-.233-.015-.012c-.031-.076-.059-.153-.085-.23a7.515,7.515,0,0,1-.248-1.272,25.284,25.284,0,0,1-.249-3.176c-.038-1.845-2.909-1.851-2.871,0Z" transform="translate(-37.336 -27.995)" fill="#333"/><path d="M141.771,116.909a89.343,89.343,0,0,1,8.591,4.2c2.372,1.367,5.168,3.021,6.518,5.511a19.232,19.232,0,0,1,1.168,3.317c.411,1.353.781,2.718,1.13,4.091.8,3.142,1.5,6.31,2.141,9.487,1.059,5.206,2.064,10.452,2.764,15.718a16.717,16.717,0,0,1,.171,1.92c0,.164-.02.7-.017.673a2.728,2.728,0,0,1-.194.689,10.764,10.764,0,0,1-2.789,3.031,60.2,60.2,0,0,1-9.714,6.442c-1.85,1.062-3.711,2.1-5.573,3.141-2.042,1.14-4.242,2.178-6.173,3.5-1.528,1.043-1.9,3.106-2.744,4.63a1.957,1.957,0,0,1-.174.281c.267-.319-.123.028-.287.118a6.72,6.72,0,0,1-1.513.578,14.15,14.15,0,0,1-3.19.351c-1.843.057-1.851,2.928,0,2.871a13.106,13.106,0,0,0,6.292-1.4c1.408-.818,1.747-2.335,2.412-3.711a3.435,3.435,0,0,1,1.537-1.751q1.5-.861,3.007-1.708c1.753-.986,3.517-1.962,5.267-2.948a95.43,95.43,0,0,0,10.71-6.628c2.369-1.779,5.616-4.075,5.972-7.263a16.8,16.8,0,0,0-.322-4.225c-.155-1.077-.324-2.147-.5-3.218q-.727-4.45-1.585-8.881a131.016,131.016,0,0,0-4.543-18.65,10.861,10.861,0,0,0-2.369-4.032,22.877,22.877,0,0,0-4.45-3.5,75.744,75.744,0,0,0-10.1-5.114,1.481,1.481,0,0,0-1.964.515,1.447,1.447,0,0,0,.515,1.964Z" transform="translate(-36.835 -32.248)" fill="#333"/><path d="M151.867,148.586c.79,4.23,1.408,8.506,1.914,12.776.09.762.182,1.527.233,2.294.018.277.022.551.019.83s-.009.544-.018.815c0,.1-.011.2-.02.3.025-.169.023-.178-.008-.027-.065.248.065-.185.09-.139s-.192.155-.183.149c-.474.33-.952.65-1.413,1-1.31.985-2.588,2.01-3.866,3.037a1.444,1.444,0,0,0,0,2.03,1.47,1.47,0,0,0,2.03,0c1.021-.819,2.042-1.639,3.086-2.433a26.942,26.942,0,0,0,2.263-1.638c1.029-.972.975-2.5.9-3.818-.2-3.433-.81-6.876-1.325-10.272-.287-1.891-.581-3.782-.933-5.663-.338-1.814-3.106-1.046-2.768.763Z" transform="translate(-41.831 -41.433)" fill="#333"/><path d="M108.729,119.148a10.955,10.955,0,0,0,6.489.624,1.444,1.444,0,0,0,1-1.766A1.472,1.472,0,0,0,114.458,117c-.116.024-.233.045-.35.065l-.177.027c.215-.028.271-.036.158-.023-.228.023-.454.046-.682.057a10.212,10.212,0,0,1-1.292-.023c-.107-.008-.215-.019-.32-.031-.372-.042.266.049-.026,0-.207-.037-.414-.072-.619-.119s-.4-.1-.6-.16c-.11-.034-.219-.071-.327-.111-.093-.033-.473-.192-.05-.011a1.571,1.571,0,0,0-1.106-.144,1.463,1.463,0,0,0-.861.66,1.446,1.446,0,0,0-.144,1.106,1.374,1.374,0,0,0,.66.858Z" transform="translate(-30.489 -32.879)" fill="#333"/><path d="M128.084,119.478a5.542,5.542,0,0,0,1.05-.1c.287-.043.574-.1.857-.175a7.927,7.927,0,0,0,1.689-.6,1.435,1.435,0,0,0-.343-2.623,1.571,1.571,0,0,0-1.106.144c-.055.029-.112.055-.169.079l.343-.144a8.52,8.52,0,0,1-2.106.563l.382-.051a3.384,3.384,0,0,1-.6.037,1.435,1.435,0,0,0,0,2.871Z" transform="translate(-35.748 -32.725)" fill="#333"/><path d="M80.053,30.678a88.86,88.86,0,0,0-7.5,23.059,70.4,70.4,0,0,0-1.035,12.1,63.907,63.907,0,0,0,1.518,12.214c.891,4.465,1.872,8.949,1.7,13.53-.072,1.847,2.8,1.845,2.871,0,.307-8.02-2.768-15.657-3.164-23.614A68.87,68.87,0,0,1,77.67,44.62a91.975,91.975,0,0,1,4.863-12.5c.786-1.661-1.688-3.12-2.478-1.449Z" transform="translate(-20.187 -8.45)" fill="#333"/><path d="M157.868,28.932c-.065,4.928,1.6,9.569,3.264,14.135A55.445,55.445,0,0,1,164.6,57.745c.79,9.838-.464,19.784,1.566,29.521a32.42,32.42,0,0,0,6.185,13.743,1.446,1.446,0,0,0,2.03,0,1.472,1.472,0,0,0,0-2.031c-5.517-6.923-6.479-16.286-6.6-24.824-.072-5.13.108-10.264-.23-15.39a53.485,53.485,0,0,0-2.892-14.355c-1.764-5.019-3.991-10.058-3.919-15.479a1.436,1.436,0,0,0-2.871,0Z" transform="translate(-44.559 -7.774)" fill="#333"/><path d="M152.614,90.167A98.258,98.258,0,0,0,152,103.594a1.436,1.436,0,0,0,2.871,0c0-2.262.053-4.522.139-6.782.042-1.138.095-2.273.167-3.409.033-.51.072-1.018.115-1.527.017-.2.037-.4.057-.594.011-.1.1-.764.038-.352a1.484,1.484,0,0,0-1-1.766,1.445,1.445,0,0,0-1.766,1Z" transform="translate(-42.895 -25.154)" fill="#333"/><path d="M140.464,26.108a21.531,21.531,0,0,1,8.848,12.667,36.427,36.427,0,0,1,.851,6.545,16.847,16.847,0,0,1-.912,7.159,1.444,1.444,0,0,0,1,1.766,1.471,1.471,0,0,0,1.766-1,18.9,18.9,0,0,0,1.015-7.922,39.462,39.462,0,0,0-1.02-7.575,24.59,24.59,0,0,0-10.1-14.113c-1.521-1.057-2.958,1.43-1.449,2.479Z" transform="translate(-39.466 -6.597)" fill="#333"/><path d="M89.474,48.887a22.184,22.184,0,0,1-.366-5.143,20.709,20.709,0,0,1,.762-5.591,21.571,21.571,0,0,1,6.951-10.237c1.414-1.193-.626-3.215-2.03-2.03a24.244,24.244,0,0,0-7.688,11.5,23.527,23.527,0,0,0-.861,6.219,25.632,25.632,0,0,0,.467,6.043c.4,1.8,3.169,1.039,2.768-.764Z" transform="translate(-24.336 -7.205)" fill="#333"/><path d="M134.22,44.823a28.869,28.869,0,0,0,4.065,9.067c1.876,2.522,4.384,5.539,7.608,6.259,1.8.4,2.568-2.369.763-2.768-2.479-.554-4.624-3.185-6.1-5.219a26.619,26.619,0,0,1-3.571-8.1c-.535-1.763-3.307-1.012-2.768.762Z" transform="translate(-37.865 -12.153)" fill="#333"/><path d="M122.4,42.866a22.025,22.025,0,0,1-9.148,6.271q-1.389.537-2.82.955-.718.211-1.446.393c-.237.06-.5.1-.729.177l-.292.067a1,1,0,0,1,1.077.535c.144-.043-.108.482.038.019a2.516,2.516,0,0,0,.026-.441c.033-.292.1-.584.161-.871.159-.758.351-1.507.485-2.272a1.449,1.449,0,0,0-2.4-1.4c-5.011,4.138-10.762,7.3-15.873,11.309a1.443,1.443,0,0,0,0,2.03,1.472,1.472,0,0,0,2.03,0c5.112-4.011,10.857-7.167,15.874-11.309l-2.4-1.4c-.287,1.611-1.176,3.643-.646,5.272a1.963,1.963,0,0,0,2.385,1.292,28.623,28.623,0,0,0,3.607-.992c4.545-1.5,9-3.872,12.094-7.608,1.169-1.413-.851-3.455-2.03-2.03Z" transform="translate(-25.703 -11.964)" fill="#333"/><path d="M151.067,65.55a1.588,1.588,0,0,1,2.228.273l.018.024a3.388,3.388,0,0,1,.325,1.727,10.376,10.376,0,0,1-.144,2.119c-.46,2.519-1.732,5.544-4.533,6.047a1.446,1.446,0,0,0-1,1.765,1.467,1.467,0,0,0,1.766,1c4.345-.779,6.419-5.681,6.747-9.618.169-2.037-.008-4.345-1.769-5.662a4.538,4.538,0,0,0-5.666.294,1.447,1.447,0,0,0,0,2.031,1.467,1.467,0,0,0,2.03,0Z" transform="translate(-41.748 -17.606)" fill="#333"/><path d="M142.964,79.188a11.547,11.547,0,0,1-.674,3.114c-.044.137-.352.945-.16.508q-.143.329-.306.65a26.452,26.452,0,0,1-2.275,3.656c-1.97,2.7-4.648,5.568-8.022,6.36-1.794.422-1.037,3.19.763,2.768,4.073-.955,7.231-4.283,9.627-7.528,2.067-2.8,3.773-5.972,3.917-9.529C145.907,77.34,143.036,77.343,142.964,79.188Z" transform="translate(-36.836 -21.961)" fill="#333"/><path d="M91.836,63.518a4.538,4.538,0,0,0-5.666-.294c-1.762,1.313-1.938,3.629-1.768,5.662.327,3.938,2.4,8.841,6.747,9.618A1.478,1.478,0,0,0,92.915,77.5a1.448,1.448,0,0,0-1-1.766c-2.8-.5-4.073-3.528-4.533-6.046a10.211,10.211,0,0,1-.144-2,3.971,3.971,0,0,1,.276-1.763,1.579,1.579,0,0,1,2.186-.458c.038.025.075.052.111.08a1.478,1.478,0,0,0,2.03,0,1.448,1.448,0,0,0,0-2.03Z" transform="translate(-23.809 -17.605)" fill="#333"/><path d="M92.579,78.792a23.99,23.99,0,0,0,5.115,11.484,17.147,17.147,0,0,0,11.188,6.354,1.447,1.447,0,0,0,1.435-1.435,1.468,1.468,0,0,0-1.435-1.435c-3.808-.411-6.985-2.862-9.346-5.742a21.374,21.374,0,0,1-4.188-9.992,1.446,1.446,0,0,0-1.766-1,1.467,1.467,0,0,0-1,1.766Z" transform="translate(-26.118 -21.726)" fill="#333"/><path d="M106.641,11.7c.151-.027-.2-.043-.39-.09-.348-.087-.688-.2-1.029-.316a12.642,12.642,0,0,0-2.606-.651,2.919,2.919,0,0,0-3.223,1.589,18.569,18.569,0,0,0-1.22,4.579c-.154.848-.294,1.7-.427,2.549a4.027,4.027,0,0,0,.031,2.689c1.171,2,3.273.439,4.8-.088a32.34,32.34,0,0,1,5.153-1.255,43.067,43.067,0,0,1,9.347-.443A47.874,47.874,0,0,1,128,22.045a2.08,2.08,0,0,0,2.475-.909,3.232,3.232,0,0,0-.105-2.575c-.421-1.466-.861-2.93-1.385-4.363a9.115,9.115,0,0,0-1.659-3.332c-1.205-1.219-3.255-.383-4.494.334a10.525,10.525,0,0,0-1.562.92l-.15.039q.646.073.342-.01c.22-.051.235.143.106.028-.034-.032-.329-.241-.072-.041-.106-.083-.207-.179-.306-.271a34.579,34.579,0,0,1-2.531-2.815,15.293,15.293,0,0,0-2.976-2.959,2.766,2.766,0,0,0-3.454.41,27.69,27.69,0,0,0-3.162,3.154c-.486.523-.975,1.049-1.507,1.526a4.33,4.33,0,0,1-.511.4c-.055.041-.164.072-.206.118.059-.067.287-.052.183-.051a1.436,1.436,0,0,0,0,2.871c1.735-.022,3.139-1.83,4.209-2.987.675-.73,1.338-1.474,2.055-2.163a9.425,9.425,0,0,1,.772-.683,2.765,2.765,0,0,1,.449-.27c-.314.143.065,0,.154-.009H113.9c.2.031.131.065-.006-.042.083.067.2.106.287.166.169.113-.054-.066.188.143q.207.181.4.371c.563.543,1.077,1.133,1.59,1.723a28.164,28.164,0,0,0,3.149,3.431,2.787,2.787,0,0,0,1.846.8,5.685,5.685,0,0,0,2.62-1.14,6.475,6.475,0,0,1,1.133-.6,5.556,5.556,0,0,0,.631-.121c.184-.106-.1-.041-.271-.119l-.174-.125.061.072c-.08.019-.111-.195.033.088.066.131.144.256.205.387.15.3.277.612.4.925.392,1.014.729,2.051,1.05,3.09q.243.789.473,1.579l.19.661c.024.086.042.179.072.262.144.373-.114.164.088-.1l.515-.515-.044.015h.763c-1.24-.2-2.461-.722-3.7-.975-1.412-.287-2.842-.49-4.273-.652a62.58,62.58,0,0,0-7.881-.411,41.2,41.2,0,0,0-6.915.741,33.181,33.181,0,0,0-3.8.909c-.545.168-1.083.355-1.612.566-.328.131-.655.269-.977.416q-.2.093-.4.191-.607.243.492.176l.369.633c.053.148-.023.116,0-.1s.062-.4.093-.6q.079-.5.16-1c.118-.727.243-1.454.381-2.178a18.118,18.118,0,0,1,.868-3.453,1.945,1.945,0,0,0,.123-.24c.039-.144.155-.106.044-.085a2.366,2.366,0,0,1-.257.215c.006.065-.013-.047.166-.019a11.779,11.779,0,0,1,1.707.327,7.74,7.74,0,0,0,3.718.659c1.814-.337,1.046-3.1-.763-2.772" transform="translate(-27.526 -1.595)" fill="#333"/><path d="M87.444,79.687a12.915,12.915,0,0,0-1.435,5.239,32.233,32.233,0,0,0,.451,5.934c.147,1.3.256,2.794-.642,3.871-.436.523-1.173.574-1.524,1.185a1.894,1.894,0,0,0-.171,1.413c.418,1.573,2.494,2.31,3.863,2.72a16.278,16.278,0,0,0,6.675.532,12.752,12.752,0,0,0,8.169-4.186c1.2-1.393-.821-3.432-2.03-2.03A10.792,10.792,0,0,1,91.539,97.8a13.745,13.745,0,0,1-3.721-.84c.168.072-.215-.1-.25-.118-.11-.055-.215-.111-.326-.172-.182-.1-.581-.4-.3-.177-.041-.033-.174-.123-.184-.175-.044-.215.2.3.06.072a1.051,1.051,0,0,1-.021.933l-.861.66c3.035-1.153,3.724-4.352,3.373-7.271-.386-3.234-.99-6.551.612-9.574.861-1.631-1.613-3.086-2.479-1.449Z" transform="translate(-23.726 -22.29)" fill="#333"/><path d="M126.124,191.9c.69.055,1.373.182,2.066.205a4.588,4.588,0,0,0,2.563-.574,1.435,1.435,0,1,0-1.449-2.478,2.7,2.7,0,0,1-.3.158l.343-.143a2.993,2.993,0,0,1-.723.191l.381-.052a14.206,14.206,0,0,1-2.878-.173,1.436,1.436,0,0,0-1.015,2.45,1.6,1.6,0,0,0,1.015.421Z" transform="translate(-35.195 -53.306)" fill="#333"/><path d="M117.127,174.8c-1.407-.168-2.648-1.937-2.731-3.273-.072-1.191,1.507-2.41,2.491-2.448a1.453,1.453,0,0,0,1.435-1.435c-.122-2.122,2.046-2.484,3.747-2.239a6.973,6.973,0,0,1,4.97,3.661,4.838,4.838,0,0,1,.552,1.44c.017.085.029.172.045.258.046.248-.023-.258.017.131.072.708.124,1.417.128,2.129a9.894,9.894,0,0,1-.183,2.231c-.035.155-.077.306-.123.457-.03.094-.063.189-.1.281q.072-.187-.032.036c-.033.064-.258.359-.072.122-.12.111-.112.113.024,0a1.171,1.171,0,0,1-.2.107,1.448,1.448,0,0,0-.515,1.964,1.466,1.466,0,0,0,1.964.515c1.531-.729,1.893-2.688,2.042-4.2a17.332,17.332,0,0,0-.192-4.588,9.627,9.627,0,0,0-3.589-5.51,9.149,9.149,0,0,0-6.926-1.874,4.889,4.889,0,0,0-4.429,5.076l1.435-1.435c-2.6.1-5.494,2.571-5.362,5.318a6.6,6.6,0,0,0,5.6,6.144,1.443,1.443,0,0,0,1.435-1.435,1.47,1.47,0,0,0-1.435-1.435Z" transform="translate(-31.477 -45.862)" fill="#333"/><path d="M123.151,175.342a7.341,7.341,0,0,0,1.747.569,4.658,4.658,0,0,0,2.133-.063,1.507,1.507,0,0,0,.861-.66,1.466,1.466,0,0,0,.144-1.106,1.436,1.436,0,0,0-1.763-1.006h0a2.541,2.541,0,0,1-.386.086l.382-.051a3.409,3.409,0,0,1-.868-.006l.382.052a5.774,5.774,0,0,1-1.435-.407l.342.144-.082-.035a1.07,1.07,0,0,0-.534-.171,1.091,1.091,0,0,0-.574.026,1.466,1.466,0,0,0-.861.66,1.446,1.446,0,0,0-.144,1.106,1.383,1.383,0,0,0,.66.861Z" transform="translate(-34.56 -48.736)" fill="#333"/><path d="M110.028,166.973c-.147.072-.3.149-.447.216.253-.111-.037.007-.144.043-.265.09-.538.129-.8.2-.154.043.138-.019.144-.019-.061,0-.124.014-.185.015-.12,0-.238.008-.359,0-.066,0-.407-.054-.149-.006s-.1-.027-.172-.045a1.88,1.88,0,0,0-.3-.1c-.017,0,.272.143.023,0-.078-.044-.156-.085-.233-.133-.173-.107-.264-.23-.048-.019-.126-.123-.257-.241-.382-.367-.25-.253.106.182-.014-.006-.055-.085-.116-.167-.17-.253-.1-.164-.172-.345-.268-.51-.017-.03.1.3.015.019-.035-.111-.072-.22-.106-.332-.013-.046-.136-.563-.123-.566s.034.418.01.039c-.008-.113-.016-.228-.017-.342,0-.174.015-.347.022-.522.009-.232-.086.371,0,.02.023-.093.039-.186.064-.278s.05-.156.072-.235c.09-.3,0,0-.014.024.022-.026.242-.442.254-.43.112.1-.254.261-.1.136.039-.034.072-.083.111-.12s.065-.059.094-.09c.156-.177-.031.151-.114.08,0,0,.207-.132.22-.144.273-.182-.26.054,0-.006.089-.021.182-.049.27-.075.258-.08-.332,0,.024,0h.32c.393.007-.271-.061.139.019a1.458,1.458,0,0,0,1.766-1.766c0,.008-.056-.384-.037-.22s-.013-.189-.015-.221a5.793,5.793,0,0,1-.005-.679c0-.035.057-.458.005-.144.018-.108.039-.215.065-.318s.061-.2.087-.308c.064-.255-.05.072.02-.066.047-.093.093-.184.148-.273.019-.032.22-.291.1-.157s.117-.105.14-.13c.24-.262-.108.055.061-.053.094-.06.189-.115.287-.168.291-.158-.159.014.184-.065.1-.023.2-.051.3-.072.454-.112-.179-.009.122-.024a7.834,7.834,0,0,1,1.046.008c-.337-.028.215.044.333.071a6.143,6.143,0,0,1,.638.19s.4.164.194.072c.093.042.185.086.276.131a8.047,8.047,0,0,1,.784.454,9.4,9.4,0,0,1,1.448,1.206c1.318,1.3,3.35-.732,2.03-2.03-1.987-1.954-4.622-3.4-7.479-2.876a4.316,4.316,0,0,0-3.12,2.327,6.693,6.693,0,0,0-.381,4.114l1.766-1.766a4.036,4.036,0,0,0-3.649.861,4.626,4.626,0,0,0-1.327,3.077,5.575,5.575,0,0,0,3.368,5.671,5.88,5.88,0,0,0,4.665-.589,1.436,1.436,0,0,0-1.449-2.48Z" transform="translate(-29.189 -43.936)" fill="#333"/><path d="M124.63,160.462c-.125-2.672,3.357-4.66,5.712-4.624.2,0,.406.021.608.039.364.032-.148-.036.128.014.164.03.329.057.492.092a8.094,8.094,0,0,1,.9.245c.072.024.42.161.332.121s.233.122.305.163c.051.029.381.245.287.173s.175.172.227.22.133.207,0-.006a.93.93,0,0,1,.094.155c.053.154-.01-.049-.017-.067a2.138,2.138,0,0,1,.088.319c.034.166.014.062.01.024a2.816,2.816,0,0,1,.014.322,2.205,2.205,0,0,1-.009.238c-.017.26.035-.164-.009.093a4.638,4.638,0,0,1-.266.873,10.7,10.7,0,0,1-3.21,3.571,1.444,1.444,0,0,0,0,2.03,1.47,1.47,0,0,0,2.03,0A12.582,12.582,0,0,0,136,160.3c.881-1.829,1.059-4.243-.629-5.683-2.757-2.352-7.281-2.025-10.12-.059-1.9,1.318-3.608,3.462-3.494,5.9A1.466,1.466,0,0,0,123.2,161.9a1.45,1.45,0,0,0,1.435-1.435Z" transform="translate(-34.367 -43.177)" fill="#333"/><path d="M140.67,167.7c.222.05.447.164.668.2.169.028-.265-.144-.122-.05a1.867,1.867,0,0,0,.179.087c.1.055.207.113.307.176s.192.133.287.2c-.229-.157-.135-.107.009.023.174.158.321.336.479.507-.187-.2-.1-.14.007.022.059.086.115.174.167.264s.1.182.151.275c.085.166.164.422.051.089.072.215.154.423.215.646.027.1.052.208.072.314.014.066.022.133.037.2.054.244,0-.274-.013-.1-.011.227.038.464.037.693,0,.11-.005.22-.013.329,0,.055-.009.11-.013.165-.017.25.063.1.01-.052.048.144-.1.514-.144.655-.03.108-.064.215-.1.322-.018.053-.042.106-.058.16-.082.276.137-.266.014-.027-.113.22-.215.439-.348.65-.062.1-.13.2-.2.294-.031.046-.157.2-.022.034.152-.189-.057.063-.089.1a6.489,6.489,0,0,1-.56.556c-.047.043-.1.081-.144.123.029-.025.266-.186.06-.047-.138.093-.271.19-.413.277s-.266.157-.4.229l-.188.095c-.038.018-.368.164-.174.083s-.039.014-.085.03c-.089.032-.177.065-.266.1-.185.062-.372.118-.561.167s-.4.1-.6.133c-.083.016-.167.028-.251.044-.412.072.287-.019-.139.019-.472.042-.94.072-1.413.067a1.436,1.436,0,0,0,0,2.871c3.158.009,6.559-1.1,8.122-4.058a7.057,7.057,0,0,0-.306-7.2,5.852,5.852,0,0,0-3.487-2.419,1.467,1.467,0,0,0-1.766,1,1.451,1.451,0,0,0,1,1.766Z" transform="translate(-38.308 -46.54)" fill="#333"/><path d="M145.629,179.886a5.906,5.906,0,0,1,3.149,1.566,4.223,4.223,0,0,1,.584.98,6.825,6.825,0,0,1,.215.79c.009.037.077.523.025.1.012.1.022.2.031.294a7.344,7.344,0,0,1-.187,2.714,2.64,2.64,0,0,1-.167.493c-.052.109-.115.211-.172.317-.035.066-.183.268-.062.113a2.022,2.022,0,0,1-.291.3c.149-.126-.037.023-.107.062-.039.022-.306.132-.119.065a2.873,2.873,0,0,1-.451.109,1.436,1.436,0,0,0-1.006,1.763v0a4.759,4.759,0,0,1,.206.615c-.011-.08,0,.169,0,.2-.017.256.018-.179,0,.072a1.077,1.077,0,0,1-.406.683,2.951,2.951,0,0,1-2.6.149c-1.768-.553-2.524,2.218-.764,2.768a5.515,5.515,0,0,0,5.317-.822,3.9,3.9,0,0,0,1.021-4.426l-1,1.766c3.117-.568,3.9-4.265,3.664-6.942a7.025,7.025,0,0,0-1.59-4.073,8.279,8.279,0,0,0-4.522-2.423c-1.8-.411-2.567,2.356-.764,2.768Z" transform="translate(-40.223 -49.983)" fill="#333"/><path d="M103.192,175.544c-2.534-.144-4.408,2.473-4.893,4.694a5.014,5.014,0,0,0,.393,3.615,3.983,3.983,0,0,0,3.528,1.814V182.8a3.678,3.678,0,0,0-3.357,2.709,4.911,4.911,0,0,0,.8,3.948c1.7,2.356,5.006,2.3,7.63,2.136a13.971,13.971,0,0,0,4.031-.654,1.476,1.476,0,0,0,1-1.766,1.446,1.446,0,0,0-1.766-1,7.65,7.65,0,0,1-1.441.359q-.227.039-.455.072c.3-.042-.267.03-.319.035q-.525.057-1.053.089c-.728.046-1.458.062-2.186.036-.348-.012-.7-.033-1.042-.068-.064-.006-.431-.057-.174-.017-.172-.026-.345-.056-.516-.093a7.581,7.581,0,0,1-.782-.222c.348.113.025.012-.06-.042-.055-.035-.345-.263-.133-.079a3.337,3.337,0,0,1-.359-.367c.158.187-.037-.062-.078-.128-.03-.049-.264-.517-.144-.233a3.38,3.38,0,0,1-.124-.363c-.019-.072-.1-.584-.072-.236-.012-.124-.011-.245-.018-.369,0-.08.005-.161.011-.242q-.043.276,0,.029c.037-.11.059-.225.1-.334-.115.325.072-.09.121-.161-.195.269.016-.01.084-.05-.39.23.383-.166,0-.005.052-.022.543-.139.3-.108a1.483,1.483,0,0,0,1.435-1.435,1.456,1.456,0,0,0-1.435-1.435c-.129,0-.257-.009-.386-.016.332.019,0,0-.081-.022-.1-.03-.205-.062-.308-.091.37.1.042,0-.019-.022-.1-.028-.292-.25-.018.012a2.676,2.676,0,0,0-.2-.187c-.185-.144.1.221.006.009a1.826,1.826,0,0,0-.131-.234c.1.159.072.223.011.006-.025-.089-.047-.179-.072-.269-.029-.111-.011-.383-.006,0,0-.082-.016-.163-.014-.245v-.3c0-.046.031-.4.006-.167s.023-.123.032-.171c.021-.1.045-.207.072-.311.05-.192.124-.375.178-.565.088-.306-.111.2.021-.058.049-.1.093-.2.144-.292.1-.192.215-.371.329-.553.035-.057.258-.332.024-.049.066-.08.131-.159.2-.236a5.859,5.859,0,0,1,.431-.413c-.282.253.16-.068.261-.144.206-.152-.274.056-.009,0a1.324,1.324,0,0,0,.215-.064c.26-.107-.072-.024-.032-.005a1.329,1.329,0,0,0,.311,0,1.435,1.435,0,1,0,0-2.871Z" transform="translate(-27.697 -49.547)" fill="#333"/><path d="M106.405,195.1a13.677,13.677,0,0,0-3.122,4.713c-.6,1.369-1.5,3.218-1.184,4.759.352,1.722,2.4,1.919,3.845,1.959a21.249,21.249,0,0,0,4.672-.474c1.654-.327,3.625-.81,4.837-2.069,1.283-1.33-.745-3.364-2.03-2.03-.078.082-.163.152-.246.228.231-.212.047-.042-.09.042-.116.072-.236.137-.359.2-.1.049-.446.2-.161.085a12.6,12.6,0,0,1-1.923.6,21.61,21.61,0,0,1-2.127.395c.281-.038-.181.02-.27.03-.168.018-.337.035-.5.05-.332.029-.663.052-1,.064a9.424,9.424,0,0,1-1.479-.044c-.037-.005-.345-.048-.164-.022.155.023-.05-.009-.067-.011-.144-.026-.287-.056-.431-.083-.059-.011-.117-.041-.175-.05.024,0,.309.163.126.052-.11-.067-.093-.116.127.1l.144.192c-.05-.09-.045-.072.016.053l.048.109c-.023-.108-.023-.094,0,.042.025.028.05.179.014.024a1.258,1.258,0,0,1,.011-.195c.009.288-.025.144,0,.038.064-.287.121-.567.2-.847.072-.254.159-.5.248-.754.055-.155.113-.309.172-.463.032-.081.064-.162.1-.243.011-.029.144-.35.084-.207a12.387,12.387,0,0,1,2.712-4.22,1.435,1.435,0,0,0-2.03-2.03Z" transform="translate(-28.8 -54.954)" fill="#333"/><path d="M132.288,202.316a3.385,3.385,0,0,1,.6,1.746,7.216,7.216,0,0,1-.005,1.148c-.022.245.038-.192-.005.039-.012.065-.024.132-.04.2s-.052.165-.065.245c-.049.136-.052.152-.008.048.038-.083.039-.088.006-.019l-.024.048c-.07.11-.069.116,0,.019l.057-.072c-.093.09-.08.087.038-.012.057-.037.317-.166.3-.161-.263.08.338.026.144-.016a1.572,1.572,0,0,0-.273,0c-.083,0-.165-.024-.247-.023.435,0,.133.019-.019-.012-.25-.052-.5-.108-.745-.174-.606-.163-1.2-.365-1.787-.587q-.247-.094-.491-.192c-.072-.029-.411-.169-.332-.135-.144-.061-.64-.287-.922-.418a24.727,24.727,0,0,1-3.921-2.269c-.072-.052-.144-.107-.22-.161-.345-.257.11.09-.08-.062-.152-.121-.3-.245-.449-.372a9.5,9.5,0,0,1-.782-.758c-.1-.112-.2-.225-.292-.341.221.268-.057-.091-.113-.179-.078-.123-.138-.26-.215-.383-.127-.2.018.042.032.088-.027-.085-.06-.168-.085-.254-.529-1.765-3.3-1.013-2.769.764a7.577,7.577,0,0,0,2.8,3.589,24.477,24.477,0,0,0,4.646,2.817,23.92,23.92,0,0,0,4.512,1.7c1.306.316,2.783.486,3.611-.817a5.393,5.393,0,0,0,.622-3.126,6.192,6.192,0,0,0-1-3.352,1.48,1.48,0,0,0-1.964-.515,1.445,1.445,0,0,0-.515,1.964Z" transform="translate(-33.735 -55.969)" fill="#333"/><path d="M119.43,192.288c.283-.038-.238-.023-.189-.019a4.707,4.707,0,0,1-.5-.107,3.292,3.292,0,0,1-1.1-.518c-.477-.359-.55-.43-.194-.917.683-.933,1.543-1.634,1.651-2.87.095-1.116-.489-1.983-.673-3.035a2.235,2.235,0,0,1,1.1-2.023,2.872,2.872,0,0,1,2.206-.23c1.029.251,1.908.9,2.943,1.112,1.128.228,2.348-.111,3.437.282,1.463.528,3.164,2.781,2.089,4.194a1.437,1.437,0,0,0,.225,1.741c.781.685.144,2.105-.549,2.648s-1.886.39-2.731.389c-1.312,0-2.625-.033-3.934-.123-.3-.02-.605-.044-.907-.071-.234-.024-.656-.072-.685-.079a7.512,7.512,0,0,1-.751-.144c-.112-.027-.221-.062-.332-.092-.281-.071.243.127,0,.006-1.651-.821-3.1,1.655-1.449,2.478a11.728,11.728,0,0,0,4.5.8c1.479.088,2.975.119,4.461.093a5.261,5.261,0,0,0,4.632-2.147c1.181-1.68,1.443-4.321-.225-5.786l.225,1.74c1.837-2.418.088-5.779-1.981-7.406a6.364,6.364,0,0,0-4.245-1.28,3.776,3.776,0,0,1-1.542-.156c-.718-.268-1.37-.667-2.11-.884a5.521,5.521,0,0,0-6.955,3.17,4.161,4.161,0,0,0-.22,2.345c.124.691.534,1.334.611,2.028.034.314-.151.5-.431.824a6.169,6.169,0,0,0-1.268,1.875c-1.176,3.23,3.027,5.3,5.654,4.933a1.444,1.444,0,0,0,1-1.766,1.474,1.474,0,0,0-1.766-1Z" transform="translate(-32.272 -50.697)" fill="#333"/><path d="M137.249,175.431c.518-.24,1.043-.462,1.552-.718a7.683,7.683,0,0,0,.718-.408,4.645,4.645,0,0,0,.838-.663,1.494,1.494,0,0,0,.421-1.015,1.463,1.463,0,0,0-.421-1.016,1.443,1.443,0,0,0-1.015-.42,1.472,1.472,0,0,0-1.016.42,2.521,2.521,0,0,1-.281.251l.291-.225a13.274,13.274,0,0,1-2.54,1.316,1.444,1.444,0,0,0-.66.858,1.466,1.466,0,0,0,.144,1.106,1.449,1.449,0,0,0,.858.66l.382.052a1.427,1.427,0,0,0,.724-.2Z" transform="translate(-38.13 -48.321)" fill="#333"/><path d="M112.974,183.906c.128-.018.258-.037.386-.053l-.382.052a9.48,9.48,0,0,0,3.489-.84,1.436,1.436,0,0,0,.515-1.964,1.463,1.463,0,0,0-1.964-.515,2.473,2.473,0,0,1-.266.131l.343-.144a9.232,9.232,0,0,1-2.27.481l.382-.05c-.332.044-.665.088-1,.136a1.434,1.434,0,0,0-.858.66,1.465,1.465,0,0,0-.144,1.105,1.45,1.45,0,0,0,.66.862l.342.144a1.451,1.451,0,0,0,.764,0Z" transform="translate(-31.376 -50.919)" fill="#333"/><path d="M137.953,187.855a7.427,7.427,0,0,0,2.245,1.054,3.354,3.354,0,0,0,2.6-.185,1.5,1.5,0,0,0,.66-.861,1.436,1.436,0,0,0-2.109-1.622,1.166,1.166,0,0,1-.144.072l.343-.144a1.393,1.393,0,0,1-.31.078l.381-.052a2.364,2.364,0,0,1-.578-.014l.382.051a4.818,4.818,0,0,1-1.143-.334l.343.144a6.889,6.889,0,0,1-1.22-.672,1.436,1.436,0,0,0-2.109,1.621,1.606,1.606,0,0,0,.66.858Z" transform="translate(-38.739 -52.267)" fill="#333"/><path d="M116.5,87.929a8.67,8.67,0,0,0,4.177.975,6.885,6.885,0,0,0,4.3-1.3,1.436,1.436,0,0,0,0-2.03h0a1.481,1.481,0,0,0-2.03,0c.5-.386-.018-.009-.174.072-.121.063-.446.164.006.011-.113.038-.224.085-.339.123-.3.1-.654.108-.948.215.151-.056.232-.028.017-.006-.093.009-.186.017-.279.023-.225.014-.449.02-.675.019-.2,0-.4-.008-.6-.022-.092-.006-.184-.014-.276-.023l-.157-.018q-.169-.02.131.018c-.035.035-.4-.072-.454-.085q-.215-.048-.431-.112c-.124-.037-.245-.082-.367-.124-.322-.11.3.144.009.006-.152-.071-.3-.143-.45-.224a1.436,1.436,0,0,0-1.449,2.479Z" transform="translate(-32.682 -24.04)" fill="#333"/><path d="M121.044,74.921a18.687,18.687,0,0,1,.439,2.01l-.051-.383a1.241,1.241,0,0,1,.007.278l.052-.381a.748.748,0,0,1-.031.124l.144-.343a.487.487,0,0,1-.045.08l.225-.287a.5.5,0,0,1-.065.065l.287-.225a1.248,1.248,0,0,1-.159.085l.343-.144a1.16,1.16,0,0,1-.268.077l.382-.05a1.056,1.056,0,0,1-.252,0l.382.051c-.095-.013-.188-.036-.283-.05a1.1,1.1,0,0,0-.574-.025,1.076,1.076,0,0,0-.533.17,1.437,1.437,0,0,0-.515,1.964,1.378,1.378,0,0,0,.861.66c.252.033.5.1.753.107a2.455,2.455,0,0,0,1.156-.281,1.756,1.756,0,0,0,.947-1.148,2.713,2.713,0,0,0-.009-1.191c-.109-.646-.258-1.287-.425-1.921a1.482,1.482,0,0,0-.66-.858,1.435,1.435,0,0,0-1.964.514h0a1.508,1.508,0,0,0-.144,1.106Z" transform="translate(-33.965 -20.636)" fill="#333"/><path d="M107.026,66.917c-.335,1.09-.116,3.6,1.948,3.81,2.727-.017,2.871-3.047,1.955-4.472-.752-1.166-2.964-1.652-3.9.662" transform="translate(-30.173 -18.426)" fill="#333"/><path d="M135.785,66.917c.336,1.09.117,3.6-1.947,3.81-2.727-.017-2.871-3.047-1.956-4.472.752-1.166,2.964-1.652,3.9.662" transform="translate(-37.082 -18.426)" fill="#333"/></g></g></svg>