<svg xmlns="http://www.w3.org/2000/svg" xmlns:xlink="http://www.w3.org/1999/xlink" width="180" height="130" viewBox="0 0 180 130"><defs><clipPath id="a"><rect width="180" height="130" fill="#333"/></clipPath></defs><g clip-path="url(#a)"><path d="M188.269,134.486a34.6,34.6,0,0,0,.334,4.6,7.664,7.664,0,0,0,.457,2.162,2.166,2.166,0,0,0,1.408,1.084,5.137,5.137,0,0,0,1.444.234,1.731,1.731,0,0,0,1.306-.517,9.043,9.043,0,0,0,1.835-2.625,30.217,30.217,0,0,0,1.451-3.764,1.1,1.1,0,0,0-.733-1.339,1.072,1.072,0,0,0-1.292.761c-.175.51-.347,1.022-.525,1.53q-.11.311-.228.62l-.072.185c0,.011-.065.162-.021.053s-.03.07-.041.1l-.078.181a12.467,12.467,0,0,1-.664,1.3q-.195.331-.409.65c-.065.1-.131.192-.2.288-.181.264.111-.1-.055.068-.116.12-.229.243-.35.36-.056.055-.123.1-.175.164-.074.085.128-.1.121-.095.229-.139.259-.1.152-.07.044-.011.271-.01.067-.019-.074,0-.147,0-.221-.006s-.169-.016-.253-.024c.242.021-.008,0-.112-.026a4.935,4.935,0,0,1-.532-.15c-.193-.064.175.037-.006-.006.012,0-.109-.062-.107-.066.014-.025.15.154.168.169-.11-.094-.03-.1-.007-.012-.012-.049-.025-.1-.036-.147-.03-.136-.053-.275-.077-.413q-.087-.5-.16-1a31.364,31.364,0,0,1-.287-4.225,1.051,1.051,0,1,0-2.1,0Z" transform="translate(-105.897 -72.896)" fill="#333"/><path d="M191.2,169.793c.145-5.059.513-10.127.979-15.165q.087-.95.189-1.9.044-.395.088-.789c.013-.111.027-.222.041-.334.021-.168-.024.181,0,.021.009-.07.019-.14.028-.21a1.132,1.132,0,0,0-.733-1.339,1.054,1.054,0,0,0-1.292.761c-.7,5.052-.967,10.193-1.239,15.285-.065,1.222-.124,2.444-.159,3.668a1.05,1.05,0,1,0,2.1,0Z" transform="translate(-106.364 -81.99)" fill="#333"/><path d="M190.886,232.128c-.041-1.681-.057-3.362-.061-5.044a1.051,1.051,0,1,0-2.1,0c0,1.681.02,3.363.061,5.044a1.051,1.051,0,1,0,2.1,0" transform="translate(-106.154 -123.495)" fill="#333"/><path d="M181.613,116.723c-.837-1.05-1.706-2.074-2.614-3.056a29.188,29.188,0,0,0-3.046-2.756,1.257,1.257,0,0,1-.579-1.3,2.243,2.243,0,0,1,1.1-1.43c1.374-.855,3.054-.981,4.479-1.741a13.651,13.651,0,0,0,1.865-1.441,2.964,2.964,0,0,1,2.084-.521,10.414,10.414,0,0,1,2.262.306,4.243,4.243,0,0,1,1.785,1.2,5.132,5.132,0,0,0,2.114,1.214,4.91,4.91,0,0,1,1.933.82,6.033,6.033,0,0,1,1.313,1.676,3.274,3.274,0,0,1,.573,2.256,3.2,3.2,0,0,1-1.241,1.645,17.405,17.405,0,0,1-2.251,1.461,22.422,22.422,0,0,1-2.6,1.284,8.793,8.793,0,0,0-2.269,1.109l.53-.148a26.042,26.042,0,0,1-5.891-.849,1.075,1.075,0,0,0-1.292.76,1.1,1.1,0,0,0,.733,1.339,27.921,27.921,0,0,0,6.279.934,2.519,2.519,0,0,0,1.249-.54,11.637,11.637,0,0,1,1.313-.544,26.736,26.736,0,0,0,3.015-1.465c1.717-.981,3.775-2.192,4.413-4.249.648-2.091-.691-4.518-2.1-5.945a5.834,5.834,0,0,0-2.706-1.526,4.1,4.1,0,0,1-1.229-.454,11.1,11.1,0,0,1-1.083-.971,5.411,5.411,0,0,0-2.814-1.265,11.07,11.07,0,0,0-3.277-.159,5.3,5.3,0,0,0-2.793,1.518,6.557,6.557,0,0,1-2.573,1.283c-1.976.6-4.091,1.357-4.842,3.561a3.4,3.4,0,0,0,.546,3.244,20.054,20.054,0,0,0,2.162,1.854,41.413,41.413,0,0,1,3.981,4.445,1.032,1.032,0,0,0,1.485,0,1.142,1.142,0,0,0,0-1.539Z" transform="translate(-97.449 -55.903)" fill="#333"/><path d="M196.177,113.123l.066.027-.251-.11a3.029,3.029,0,0,1,.672.408l-.212-.171a3.145,3.145,0,0,1,.549.571l-.164-.22a3.16,3.16,0,0,1,.234.368,1.088,1.088,0,0,0,.628.5,1.139,1.139,0,0,0,.809-.11,1.094,1.094,0,0,0,.481-.65,1.188,1.188,0,0,0-.106-.839,4.739,4.739,0,0,0-.449-.655,3.1,3.1,0,0,0-.37-.4,4.734,4.734,0,0,0-.613-.473,4.509,4.509,0,0,0-.716-.349,1.141,1.141,0,0,0-.809.11,1.111,1.111,0,0,0-.377,1.489h0l.165.22a1.033,1.033,0,0,0,.463.28Z" transform="translate(-109.911 -60.647)" fill="#333"/><path d="M201.685,123.9q.116-.4.248-.8.081-.24.168-.478.038-.1.078-.209c.051-.132.055-.175,0-.017a5.346,5.346,0,0,1,.4-.857c.073-.136.151-.272.235-.4a1.79,1.79,0,0,0,.105-.152c-.131.255-.074.1,0,.018.04-.045.088-.086.128-.133.109-.133-.219.127-.065.049a.9.9,0,0,0,.113-.068q-.262.11-.1.045c.031-.011.061-.021.093-.03.076-.023.152-.037.229-.056.205-.052-.231.018,0,0,.163-.015.326-.024.49-.026.656-.007,1.313.082,1.969.1a1.079,1.079,0,0,0,1.05-1.089,1.091,1.091,0,0,0-1.05-1.089c-1.409-.045-3.208-.471-4.31.717a6.076,6.076,0,0,0-1.071,1.8,19.228,19.228,0,0,0-.74,2.094,1.094,1.094,0,0,0,.733,1.339,1.046,1.046,0,0,0,1.292-.76Z" transform="translate(-112.282 -64.805)" fill="#333"/><path d="M187.524,118.025q.237.011.472.042l-.279-.039a5.21,5.21,0,0,1,1.315.373l-.251-.11a5.277,5.277,0,0,1,1.134.683l-.213-.171c.1.078.191.159.284.244a1.088,1.088,0,0,0,.744.318,1.07,1.07,0,0,0,1.053-1.086,1.111,1.111,0,0,0-.309-.774,6.227,6.227,0,0,0-3.947-1.66,1.078,1.078,0,0,0-1.05,1.089,1.093,1.093,0,0,0,1.05,1.089Z" transform="translate(-104.889 -63.303)" fill="#333"/><path d="M182.992,158.52c-1.054-1.25-2.08-2.551-3.194-3.746a12.412,12.412,0,0,0-3.645-2.7,1.051,1.051,0,0,0-1.542.65c-.737,4.981,2.548,9.5,6.764,11.475a1.061,1.061,0,0,0,1.437-.39,1.12,1.12,0,0,0-.377-1.489,10.335,10.335,0,0,1-4.488-3.764,9.246,9.246,0,0,1-1.109-2.661,7.61,7.61,0,0,1-.2-1.31c-.017-.248-.027-.5-.026-.743,0-.115,0-.23.009-.346,0-.035.039-.376.011-.195l-1.542.65a10.857,10.857,0,0,1,3.316,2.46c1.072,1.17,2.072,2.426,3.1,3.641a1.024,1.024,0,0,0,1.485.013,1.117,1.117,0,0,0,.012-1.539l-.012-.013Z" transform="translate(-98.157 -83.037)" fill="#333"/><path d="M193.132,165.288c1.063-1.1,2.13-2.242,3.286-3.233a11.752,11.752,0,0,1,3.4-1.931l-1.329-1.05a7.07,7.07,0,0,1-.33,2.966,7.427,7.427,0,0,1-.438,1.1,6.274,6.274,0,0,1-.311.569c-.047.075-.1.148-.145.22s-.04.059.008,0c-.033.043-.067.086-.1.127a16.71,16.71,0,0,1-5.382,3.955,1.122,1.122,0,0,0-.377,1.489,1.052,1.052,0,0,0,1.437.391,21.666,21.666,0,0,0,3.417-2.143,13.12,13.12,0,0,0,2.521-2.322,9.072,9.072,0,0,0,1.4-2.805,8.642,8.642,0,0,0,.4-3.545c-.08-.631-.616-1.326-1.329-1.05a14.614,14.614,0,0,0-4.118,2.32,44.006,44.006,0,0,0-3.491,3.4c-.959.99.525,2.529,1.485,1.539Z" transform="translate(-107.585 -86.318)" fill="#333"/><path d="M102.076,252.49c.06,3.482.06,8.7.273,13.727" transform="translate(-57.416 -137.972)" fill="#333"/><path d="M16.932,218.848A33.45,33.45,0,0,0,19.579,207.3c.235-4.4.081-8.825.073-13.23a70.625,70.625,0,0,1,.907-13.561,21.221,21.221,0,0,1,3.65-8.848,14.949,14.949,0,0,1,7.019-5.266,11.791,11.791,0,0,1,8.933.964,11.4,11.4,0,0,1,3.519,2.847,20.17,20.17,0,0,1,1.225,1.845c.5.771,1.02,1.523,1.555,2.268,2.461,3.424,5.19,6.6,7.93,9.785a17.861,17.861,0,0,0,4.093,3.8,7.92,7.92,0,0,0,5.962.789,106.183,106.183,0,0,0,12.435-3.978q1.619-.561,3.247-1.094l-1.186-.5c1.636,3.9,3.173,7.837,4.561,11.835l.481-1.229c-3.288,1.584-6.558,3.21-9.873,4.734a76.943,76.943,0,0,1-9.807,3.9,20.954,20.954,0,0,1-3.863.849,15.877,15.877,0,0,1-4.565-.357,40.038,40.038,0,0,1-10.847-4.218A105.791,105.791,0,0,1,33.838,191.5c-1.116-.8-2.167,1.089-1.06,1.88a111.216,111.216,0,0,0,10.132,6.542,46.4,46.4,0,0,0,11.264,4.76,21.842,21.842,0,0,0,5.45.738,16.766,16.766,0,0,0,3.988-.617,63.993,63.993,0,0,0,9.989-3.761c3.855-1.724,7.638-3.613,11.445-5.447a1.106,1.106,0,0,0,.481-1.23c-1.449-4.175-3.063-8.287-4.772-12.355a1.037,1.037,0,0,0-1.186-.5c-4.272,1.388-8.469,3.03-12.776,4.3-1.936.571-4.134,1.387-6.138.729a10.1,10.1,0,0,1-4.016-3.112,123.811,123.811,0,0,1-7.927-9.614c-1.054-1.436-1.956-2.978-2.99-4.423a12.985,12.985,0,0,0-3.6-3.4A14.23,14.23,0,0,0,32.7,163.86a15.218,15.218,0,0,0-8.494,4.571c-5.431,5.418-6.371,13.558-6.6,20.975-.144,4.7,0,9.4-.032,14.1a38.6,38.6,0,0,1-1.383,11.339,30.271,30.271,0,0,1-1.076,2.907,1.147,1.147,0,0,0,.377,1.489,1.038,1.038,0,0,0,1.437-.39Z" transform="translate(-8.429 -89.481)" fill="#333"/><path d="M99.676,251.224c.077,4.576.082,9.153.273,13.727a1.05,1.05,0,1,0,2.1,0c-.191-4.574-.2-9.15-.273-13.727A1.05,1.05,0,1,0,99.676,251.224Z" transform="translate(-56.065 -136.706)" fill="#333"/><path d="M56.384,121.144c-1.528-.771-3.2-1.189-4.779-.305a4.028,4.028,0,0,0-1.867,4.257,9.669,9.669,0,0,0,1.987,4.347,5.148,5.148,0,0,0,4.1,2.014,1.093,1.093,0,0,0,1.05-1.089,1.08,1.08,0,0,0-1.05-1.089c-2.136.091-3.413-2.245-3.929-4.127a1.977,1.977,0,0,1,.649-2.364,2.759,2.759,0,0,1,2.775.238,1.056,1.056,0,0,0,1.437-.391,1.121,1.121,0,0,0-.377-1.489Z" transform="translate(-27.932 -65.761)" fill="#333"/><path d="M95.8,108.886c-.044.967.49,3.055,1.841,2.948,1.739-.39,1.356-2.97.546-4.048-.664-.88-2.151-.985-2.387,1.1" transform="translate(-53.882 -58.575)" fill="#333"/><path d="M109.555,110.55a5.315,5.315,0,0,0,2.816-2.259c.632-1.3-.569-2.48-1.362-3.359a11.776,11.776,0,0,1-1.135-1.256,5.147,5.147,0,0,1-.691-1.667c-.327-1.315-.4-2.676-.613-4.008a1.054,1.054,0,0,0-1.292-.76,1.119,1.119,0,0,0-.733,1.339c.382,2.362.394,4.828,1.932,6.77.32.4.7.741,1.047,1.122s.613.805.936,1.164c.053.109.067.129.04.059a.541.541,0,0,1,0-.375c-.032-.091.116-.079-.006.011-.1.077-.234.278-.389.415a4.245,4.245,0,0,1-1.1.705,1.128,1.128,0,0,0-.733,1.339A1.054,1.054,0,0,0,109.555,110.55Z" transform="translate(-59.911 -53.116)" fill="#333"/><path d="M29.145,108.028A13.667,13.667,0,0,0,25.28,99.11c-2.346-2.379-5.39-3.847-7.744-6.2-4.447-4.448-5.882-11.359-4.385-17.453A19.135,19.135,0,0,1,23.46,63a22.627,22.627,0,0,1,7.867-2.028,24.127,24.127,0,0,1,9.254.726A16.118,16.118,0,0,1,47.7,66.441a20.717,20.717,0,0,1,4.274,8.418,22.883,22.883,0,0,1,.542,2.666,1.053,1.053,0,0,0,1.292.76,1.122,1.122,0,0,0,.733-1.339C53.59,70.238,49.833,63.8,43.875,60.731a20.838,20.838,0,0,0-9.486-2.048A28.2,28.2,0,0,0,25.125,60,21.183,21.183,0,0,0,10.5,81.579a20.59,20.59,0,0,0,2.97,9.5,16.834,16.834,0,0,0,3.051,3.815,49.012,49.012,0,0,0,4.166,3.188,20.549,20.549,0,0,1,3.869,3.4,10.887,10.887,0,0,1,2.132,4.214,11.869,11.869,0,0,1,.359,2.331c.077,1.393,2.178,1.4,2.1,0Z" transform="translate(-5.882 -32.062)" fill="#333"/><path d="M95.687,123.321a25.6,25.6,0,0,1,.511,5.288c.035,2.065-.048,4.228-1.473,5.868a7.349,7.349,0,0,1-2.648,1.765,15.089,15.089,0,0,1-3.6,1.1c-1.188.2-2.665-.172-3.426,1.05a4.613,4.613,0,0,0-.458,1.6c-.118.65-.206,1.307-.281,1.963a21.938,21.938,0,0,0,.375,7.364c.314,1.361,2.34.785,2.025-.579a19.678,19.678,0,0,1-.359-6.225c.05-.522.115-1.043.2-1.559q.066-.417.152-.831c.025-.117.049-.234.077-.35q.031-.131.065-.262a.187.187,0,0,1-.147.128,12.748,12.748,0,0,0,3.519-.456c2.24-.584,4.8-1.576,6.28-3.513A10.422,10.422,0,0,0,98.3,129.14a28.908,28.908,0,0,0-.59-6.4c-.312-1.361-2.337-.786-2.025.579Z" transform="translate(-47.335 -66.647)" fill="#333"/><path d="M15.289,135.2a10.062,10.062,0,0,1-1.346,8.76,13.2,13.2,0,0,1-7.549,5.1,16.085,16.085,0,0,1-2.3.484c-.233.029-.554-.045-.76,0,.168-.038-.046.261.083.081.061-.086.081-.288.153-.4a10.762,10.762,0,0,0,1.376-2.074,5.407,5.407,0,0,0,.246-2.553,14.785,14.785,0,0,0-2.015-4.97,8.689,8.689,0,0,1-1.047-4.726,6.8,6.8,0,0,1,6.318-6.42c1.348-.045,1.354-2.222,0-2.177A8.827,8.827,0,0,0,.4,132.754a10.325,10.325,0,0,0,.03,5.768c.588,1.95,1.951,3.538,2.508,5.488a3.841,3.841,0,0,1,.031,2.44c-.35.876-1.194,1.4-1.509,2.321a2.23,2.23,0,0,0,.872,2.69,4.082,4.082,0,0,0,2.734.124A16.3,16.3,0,0,0,14.7,146.46a12.418,12.418,0,0,0,2.615-11.835,1.072,1.072,0,0,0-1.292-.76,1.1,1.1,0,0,0-.734,1.339Z" transform="translate(0 -69.023)" fill="#333"/><path d="M79.423,84.363a8.014,8.014,0,0,1-.719,1.111c.131-.178-.071.091-.116.151q-.155.2-.314.4-.335.42-.683.829c-1.111,1.318-2.279,2.585-3.469,3.828a70.051,70.051,0,0,1-7.8,7.3,24.111,24.111,0,0,1-4.676,2.94,1.118,1.118,0,0,0-.377,1.489,1.056,1.056,0,0,0,1.436.391,24.319,24.319,0,0,0,4.352-2.7,43.887,43.887,0,0,0,3.836-3.244,96.32,96.32,0,0,0,7.9-8.136,17.28,17.28,0,0,0,2.437-3.258c.627-1.24-1.184-2.341-1.813-1.1Z" transform="translate(-34.383 -45.802)" fill="#333"/><path d="M105.45,131.2a22.1,22.1,0,0,0-2.922.449q-.677.153-1.343.354a5.836,5.836,0,0,0-1.337.492,1.5,1.5,0,0,0-.659,1.777,4.406,4.406,0,0,0,.9,1.3,18.3,18.3,0,0,0,1.415,1.521,1.024,1.024,0,0,0,1.485-.013,1.117,1.117,0,0,0,0-1.527,16.906,16.906,0,0,1-1.184-1.245c-.207-.244-.4-.5-.613-.738l-.062-.076c.077.11.082.115.016.014a.745.745,0,0,1-.156.766q-.211.188-.051.082c-.127.052-.154.063-.081.036.091-.026.18-.063.27-.094a19.63,19.63,0,0,1,2.2-.6q.558-.119,1.121-.205c.017,0,.338-.045.113-.017l.295-.037c.2-.023.394-.043.592-.06a1.089,1.089,0,0,0,0-2.177Z" transform="translate(-55.748 -71.693)" fill="#333"/><path d="M48.671,134.162c.7,1.748-.525,3.753-1.15,5.35-.662,1.694-1.324,3.628-.9,5.468.314,1.361,2.34.786,2.025-.579a4.848,4.848,0,0,1,.211-2.287,22.017,22.017,0,0,1,.875-2.491c.754-1.86,1.771-4.014.963-6.04a1.08,1.08,0,0,0-1.292-.76,1.1,1.1,0,0,0-.734,1.339Z" transform="translate(-26.149 -72.563)" fill="#333"/><path d="M172.705,206.328c3.408-.394,7.208.336,10.295-1.594a7.562,7.562,0,0,0,3.169-3.412,13.052,13.052,0,0,0,.613-3.8,17.856,17.856,0,0,0-.135-2.268c-.071-.9-.119-1.795-.191-2.691l-.306.771a15.15,15.15,0,0,0,2.82-4.587,2.8,2.8,0,0,0-.069-2.317,2.467,2.467,0,0,0-1.8-1.323c-1.542-.38-3.21.36-4.525,1.144s-2.662,1.611-3.955,2.461c-1.138.749-.085,2.633,1.06,1.88.91-.6,1.861-1.123,2.778-1.708a10.06,10.06,0,0,1,3.353-1.651,2.953,2.953,0,0,1,.321-.052c-.042,0,.4-.007.159-.029.224.02.431.139.65.173.191.029.11.084.016-.037-.047-.061.066.071.077.115.088.321.108.231.01.508a12.26,12.26,0,0,1-1.768,3.152c-.44.59-.955.961-.895,1.769.051.68.091,1.361.141,2.044a20.211,20.211,0,0,1,.131,3.146q-.053.7-.173,1.382c-.039.222-.083.443-.135.661-.029.12-.059.24-.094.358-.013.045-.166.443-.072.24a6.237,6.237,0,0,1-2.387,2.281,9.749,9.749,0,0,1-4.439,1.03c-1.551.079-3.1,0-4.644.174a1.1,1.1,0,0,0-1.05,1.089,1.076,1.076,0,0,0,1.05,1.089Z" transform="translate(-96.552 -101.096)" fill="#333"/><path d="M164.488,195.921c2.494-1.318,3.823-3.767,5.153-6.195.141-.257.119-.142,0-.05a1.9,1.9,0,0,0,.165-.168c.182-.191-.107.068.079-.066.079-.057.158-.113.238-.168a13.11,13.11,0,0,1,1.313-.766,11.216,11.216,0,0,1,2.682-1.085c1.318-.308.76-2.407-.558-2.1a13.664,13.664,0,0,0-2.955,1.188,8,8,0,0,0-2.45,1.624,8.674,8.674,0,0,0-.932,1.6c-.34.617-.69,1.23-1.084,1.814a7.5,7.5,0,0,1-2.715,2.492,1.111,1.111,0,0,0-.377,1.489,1.03,1.03,0,0,0,1.437.39Z" transform="translate(-91.631 -101.253)" fill="#333"/><path d="M277.533,64.3a38.8,38.8,0,0,0,.552,11.148,25.028,25.028,0,0,0,4.626,9.946c3.781,5.1,9.815,8.207,16.074,7.372a22.378,22.378,0,0,0,10.763-4.218,1.147,1.147,0,0,0,.377-1.489,1.037,1.037,0,0,0-1.437-.391,20.51,20.51,0,0,1-8.673,3.728,14.572,14.572,0,0,1-8.21-.635,16.336,16.336,0,0,1-6.659-4.939,26.951,26.951,0,0,1-2.619-3.961,18.62,18.62,0,0,1-1.941-4.746,36.151,36.151,0,0,1-.75-11.815,1.077,1.077,0,0,0-1.05-1.089,1.093,1.093,0,0,0-1.05,1.089Z" transform="translate(-156.008 -34.541)" fill="#333"/><path d="M364.761,75.736c.617-.286,1.242-.561,1.857-.13a1.921,1.921,0,0,1,.695,1.336A6.288,6.288,0,0,1,367,80.4c-.967,2.428-2.935,4.042-4.994,5.425-1.131.759-.079,2.644,1.06,1.88,2.669-1.792,5.444-4.177,6.213-7.565a7.923,7.923,0,0,0-.362-5.034,3.524,3.524,0,0,0-1.992-1.745,4.16,4.16,0,0,0-3.228.494,1.119,1.119,0,0,0-.377,1.489,1.054,1.054,0,0,0,1.436.391Z" transform="translate(-203.35 -40)" fill="#333"/><path d="M310.959,85.73c-.168.531-.325,1.068-.446,1.611a2.7,2.7,0,0,0-.088.677,1.465,1.465,0,0,0,.624,1.184,1.637,1.637,0,0,0,.666.287,1.943,1.943,0,0,0,.438.043c.14-.01.28-.036.418-.055l-.279.039c.035,0,.07-.01.105-.012a1.1,1.1,0,0,0,.744-.317,1.117,1.117,0,0,0,0-1.539,1.022,1.022,0,0,0-.744-.317c-.136.01-.272.035-.406.054l.279-.039a1.13,1.13,0,0,1-.274.01l.279.039a.884.884,0,0,1-.214-.06l.251.11a1.053,1.053,0,0,1-.2-.117l.213.17a.265.265,0,0,1-.039-.041l.165.22a.419.419,0,0,1-.04-.073l.106.26a.718.718,0,0,1-.021-.085l.038.289a.889.889,0,0,1,0-.221l-.038.289a8.192,8.192,0,0,1,.229-.942c.082-.3.168-.59.263-.882a1.1,1.1,0,0,0-.733-1.339,1.047,1.047,0,0,0-1.292.761Z" transform="translate(-174.607 -46.411)" fill="#333"/><path d="M334.732,76.365c.251,1.069-.093,3.473-2.024,3.559-2.538-.175-2.5-3.1-1.567-4.424.763-1.08,2.847-1.42,3.591.866" transform="translate(-185.931 -40.799)" fill="#333"/><path d="M299.135,72.9c.269,1.03.055,3.383-1.681,3.552-2.29-.058-2.376-2.91-1.588-4.235.645-1.085,2.508-1.507,3.269.684" transform="translate(-166.165 -38.978)" fill="#333"/><path d="M289.758,38.967c-1.446,1.785-3.041,3.474-4.621,5.13a20.121,20.121,0,0,1-3.142,2.612A17.3,17.3,0,0,1,277.841,49c-1.278.434-.731,2.537.558,2.1a22.355,22.355,0,0,0,6.948-4.267,43.2,43.2,0,0,0,4.032-4.2c.629-.7,1.269-1.393,1.864-2.125a1.149,1.149,0,0,0,0-1.539A1.033,1.033,0,0,0,289.758,38.967Z" transform="translate(-155.871 -21.121)" fill="#333"/><path d="M274.91,129.846a12.069,12.069,0,0,0,3.041,3.371,1.021,1.021,0,0,0,.809.11,1.076,1.076,0,0,0,.627-.5,1.134,1.134,0,0,0,.106-.839l-.106-.26a1.077,1.077,0,0,0-.377-.391l-.131-.1.213.17a11.152,11.152,0,0,1-1.937-1.979l.164.22a9.975,9.975,0,0,1-.6-.9,1.03,1.03,0,0,0-1.434-.4,1.111,1.111,0,0,0-.387,1.486l.007.013Z" transform="translate(-154.548 -70.056)" fill="#333"/><path d="M321.86,63.143a8.106,8.106,0,0,0,3.273-6.084,23.927,23.927,0,0,0-.819-6.752,47.768,47.768,0,0,1-1.185-8.926,77.3,77.3,0,0,1,.122-8.535l-.769,1.05a1.056,1.056,0,0,0,.733-.76,56.6,56.6,0,0,0,.6-8.608,28.129,28.129,0,0,0-1.519-9.409,20.192,20.192,0,0,0-4.55-7.82,24.439,24.439,0,0,0-7.434-4.968,26.755,26.755,0,0,0-26.551,2.736,21.225,21.225,0,0,0-5.385,6.016,29.508,29.508,0,0,0-4.484,16.761c.044.7.125,1.4.234,2.09.157.994,1.471.967,1.919.26l-1.957-.549a52.292,52.292,0,0,1-.693,12.258,96.591,96.591,0,0,0-1.4,11.468,11.871,11.871,0,0,0,1.356,6.422c.686,1.206,2.5.112,1.813-1.1a9.492,9.492,0,0,1-1.072-5.151,46.462,46.462,0,0,1,.458-5.229c.539-3.956,1.279-7.884,1.608-11.869a39.925,39.925,0,0,0,.033-6.8,1.077,1.077,0,0,0-1.093-1.063,1.053,1.053,0,0,0-.864.513v0l1.919.26c-.812-5.159.656-10.8,3.008-15.353a21.649,21.649,0,0,1,4.595-6.187,11.48,11.48,0,0,1,1.159-.94c.46-.335.935-.649,1.418-.947a25.269,25.269,0,0,1,3.4-1.76,24.417,24.417,0,0,1,8.982-2.02,25.507,25.507,0,0,1,9,1.464,23.727,23.727,0,0,1,7.138,3.966,16.76,16.76,0,0,1,4.744,6.382,25.445,25.445,0,0,1,2.08,8.708,53.239,53.239,0,0,1-.233,7.858c-.062.68-.14,1.355-.252,2.028l.733-.761a1.118,1.118,0,0,0-.771,1.05,68.417,68.417,0,0,0,.255,13.022c.172,1.367.387,2.725.672,4.072a36.657,36.657,0,0,1,.938,4.892,9.752,9.752,0,0,1-.241,3.7,5.953,5.953,0,0,1-1.975,2.729,1.147,1.147,0,0,0-.377,1.489,1.037,1.037,0,0,0,1.437.391Z" transform="translate(-152.985 0)" fill="#333"/><path d="M360.6,101.011c-1.024.87-1.025,2.618-1.146,3.862a22.039,22.039,0,0,0-.085,4.122,10.854,10.854,0,0,0,1.078,4.014,9.262,9.262,0,0,0,2.931,3.209,1.039,1.039,0,0,0,1.437-.391,1.134,1.134,0,0,0-.377-1.489,6.938,6.938,0,0,1-2.178-2.428,8.19,8.19,0,0,1-.806-3.1,21.3,21.3,0,0,1,.058-3.484c.044-.534.092-1.071.164-1.6a1.962,1.962,0,0,1,.409-1.179,1.125,1.125,0,0,0,0-1.539,1.047,1.047,0,0,0-1.485,0Z" transform="translate(-202.104 -55.028)" fill="#333"/><path d="M309.3,102.567c.966.048,1.933.015,2.9.037.469.01.934.043,1.4.086.227.02-.108-.024.136.017.1.017.2.034.3.054.131.026.263.06.394.091s.071.011-.023-.045c.269.166-.172-.115-.036-.112a1.19,1.19,0,0,1,.044.174q-.024-.186-.02-.063c0,.082,0,.061.018-.063a1.82,1.82,0,0,1-.051.209c-.074.263.074-.1-.061.136-.1.181-.207.357-.323.528-.041.059-.082.117-.124.176-.025.034-.186.248-.025.037a19.568,19.568,0,0,1-1.421,1.707,1.117,1.117,0,0,0,.012,1.539,1.024,1.024,0,0,0,1.473,0,20.412,20.412,0,0,0,1.729-2.122c.688-.946,1.25-2.214.549-3.333a2.35,2.35,0,0,0-1.679-.978,13.291,13.291,0,0,0-1.861-.2c-1.112-.048-2.225,0-3.337-.051a1.077,1.077,0,0,0-1.05,1.089,1.093,1.093,0,0,0,1.05,1.089Z" transform="translate(-173.38 -54.858)" fill="#333"/><path d="M306.086,40.647a29.2,29.2,0,0,0,5.493,4.183c2.028,1.293,4.109,2.5,6.173,3.727a44.356,44.356,0,0,1,6.291,4.1,13.262,13.262,0,0,1,3.482,4.9,2.337,2.337,0,0,0,2.85,1.416,6.218,6.218,0,0,0,1.774-1.215q.61-.443,1.253-.829c1.169-.7.113-2.585-1.06-1.88a22.483,22.483,0,0,0-2.821,2.064l.463-.28c-.106.026-.4.059-.423.063.031-.006-.131-.11,0,0,.117.1-.017.025-.007-.013-.012.049.06.094-.015-.024a2.513,2.513,0,0,1-.131-.243c-.088-.181-.163-.368-.245-.552a14.959,14.959,0,0,0-5.442-6.365c-1.881-1.355-3.949-2.449-5.935-3.633-1.7-1.012-3.408-2.01-5.08-3.073a27.078,27.078,0,0,1-5.14-3.888c-.954-.995-2.44.544-1.485,1.539Z" transform="translate(-171.994 -21.194)" fill="#333"/><path d="M288.878,263.246c-.783-5.249-1.681-10.527-1.96-15.837-.073-1.394-2.174-1.4-2.1,0,.289,5.5,1.225,10.976,2.035,16.416a1.053,1.053,0,0,0,1.292.76,1.121,1.121,0,0,0,.733-1.339" transform="translate(-160.203 -134.622)" fill="#333"/><path d="M390.187,257.77c1.351,3.583,2.659,7.183,3.985,10.776a1.076,1.076,0,0,0,1.292.76,1.1,1.1,0,0,0,.733-1.339c-1.326-3.593-2.633-7.193-3.985-10.776a1.077,1.077,0,0,0-1.292-.761,1.1,1.1,0,0,0-.734,1.339" transform="translate(-219.451 -140.108)" fill="#333"/><path d="M383.55,139.053a34.156,34.156,0,0,1,3.417,3.413,1.031,1.031,0,0,0,1.485,0,1.143,1.143,0,0,0,0-1.539,34.084,34.084,0,0,0-3.417-3.413,1.1,1.1,0,0,0-.744-.318,1.07,1.07,0,0,0-1.053,1.086,1.11,1.11,0,0,0,.309.774Z" transform="translate(-215.564 -74.97)" fill="#333"/><path d="M348.319,174.559c0,.053-.006.105-.008.158,0-.042.052-.237,0-.045-.026.1-.053.2-.077.293-.007.03-.071.211-.025.085s-.026.06-.04.091c-.067.136-.135.272-.211.4a6.464,6.464,0,0,1-1.025,1.319,18.845,18.845,0,0,1-7.616,4.655,10.8,10.8,0,0,0-2.085.556,2.476,2.476,0,0,0-1.225,1.742c-.318,1.678.679,3.053,1.557,4.354a27.631,27.631,0,0,0,3.688,4.431,27.258,27.258,0,0,0,8.338,5.461,13.721,13.721,0,0,0,9,.337,11.28,11.28,0,0,0,4.282-2.6,15.606,15.606,0,0,0,3.3-4.339c1.94-3.728,2.284-8.008,2.423-12.167.127-3.81.328-7.62.353-11.433a47.69,47.69,0,0,0-.931-10.613,27.277,27.277,0,0,0-4.317-9.872q-.871-1.23-1.852-2.369c-.9-1.048-2.382.5-1.485,1.539a25.243,25.243,0,0,1,5.019,8.97,36.163,36.163,0,0,1,1.439,9.7c.1,3.506-.083,7.012-.212,10.515-.149,4.037-.038,8.193-1.215,12.09a13.56,13.56,0,0,1-5.644,7.665A9.232,9.232,0,0,1,356,196.7a11.62,11.62,0,0,1-3.722-.045A15.571,15.571,0,0,1,348,194.907a24.539,24.539,0,0,1-3.773-2.518,25.31,25.31,0,0,1-3.625-3.659A24.734,24.734,0,0,1,339,186.5c-.267-.418-.532-.84-.772-1.276-.04-.074-.147-.341-.073-.118-.04-.119-.07-.239-.1-.363-.047-.2-.012-.062-.007-.012-.007-.069-.009-.139-.012-.209,0-.053,0-.106,0-.158,0-.178-.035.15,0-.025.01-.051.094-.363.037-.184.014-.045.111-.146,0-.04.038-.037.107-.11.018-.049a6.932,6.932,0,0,1,1.71-.434,18.511,18.511,0,0,0,4.173-1.822,21.233,21.233,0,0,0,3.714-2.7A9.467,9.467,0,0,0,350,176.195a4.213,4.213,0,0,0,.414-1.633,1.05,1.05,0,1,0-2.1,0Z" transform="translate(-188.963 -79.049)" fill="#333"/><path d="M261.13,134.006c-3.07,1.25-6,2.884-8.007,5.683a35.921,35.921,0,0,0-3.928,7.254c-1.213,2.948-2.35,5.929-3.431,8.93A95,95,0,0,0,241.5,170.16a23.347,23.347,0,0,0-.072,9.767,12.363,12.363,0,0,0,5.254,7.574c5.664,3.566,13.253.986,17.76-3.413.517-.5,1-1.043,1.472-1.594.889-1.048-.59-2.593-1.485-1.539a17.558,17.558,0,0,1-6.558,4.936,11.642,11.642,0,0,1-8.925.37,9.609,9.609,0,0,1-5.169-5.791,15.378,15.378,0,0,1-.72-5.216c.016-.88.082-1.758.179-2.631.015-.14.031-.279.049-.419,0,.021-.021.16,0,.03.014-.106.029-.212.044-.318q.053-.359.117-.716a85.47,85.47,0,0,1,3.9-13.5q1.706-4.83,3.631-9.577c-.141.351-.025.063.031-.074.315-.767.648-1.526,1.006-2.273a34,34,0,0,1,1.94-3.526,15.135,15.135,0,0,1,1.915-2.553,14.3,14.3,0,0,1,3.65-2.6c.707-.369,1.433-.693,2.17-.992a1.126,1.126,0,0,0,.733-1.339,1.054,1.054,0,0,0-1.292-.761Z" transform="translate(-135.525 -73.207)" fill="#333"/><path d="M307.858,129.613a2.577,2.577,0,0,0-1.19-2.127,2.54,2.54,0,0,0-2.573.157,15.973,15.973,0,0,0-2.06,1.627c-.684.561-1.374,1.114-2.062,1.67a40.464,40.464,0,0,0-7.419,7.379,10.09,10.09,0,0,0-1.373,2.471,12.458,12.458,0,0,0-.56,2.741,10.5,10.5,0,0,1-1.4,4.385,30.851,30.851,0,0,1-2.363,2.964,20.383,20.383,0,0,1-2.94,2.8c-4.37,3.5-10.5,6.93-9.9,13.633a15.6,15.6,0,0,0,4.337,8.937c1.177,1.28,2.747,2.441,4.534,1.78,1.492-.552,2.327-1.95,3.063-3.311,3.216-5.929,5.775-12.231,9.283-17.994q.617-1.014,1.281-2a1.121,1.121,0,0,0-.377-1.489,1.051,1.051,0,0,0-1.437.391c-3.5,5.161-6.008,10.982-8.794,16.567-.646,1.294-1.3,2.582-2,3.846-.485.879-1.282,2.32-2.472,1.941a4.078,4.078,0,0,1-1.6-1.27,16.529,16.529,0,0,1-1.428-1.763,13.629,13.629,0,0,1-1.948-3.93,8.009,8.009,0,0,1,1.294-7.294,28.634,28.634,0,0,1,5.79-5.066c1.084-.816,2.164-1.645,3.17-2.563a28.986,28.986,0,0,0,2.556-2.835,16.14,16.14,0,0,0,2.14-2.908,13.863,13.863,0,0,0,1.278-4.641,9.581,9.581,0,0,1,.531-2.394,9.117,9.117,0,0,1,1.273-2.071,32.08,32.08,0,0,1,3.3-3.632c1.125-1.063,2.315-2.047,3.514-3.018.635-.513,1.272-1.024,1.9-1.542A20.441,20.441,0,0,1,305,129.616c.253-.163.734-.424.753,0a1.05,1.05,0,1,0,2.1,0Z" transform="translate(-154.108 -69.512)" fill="#333"/><path d="M331.915,175.262c-1.24-2.847-2.369-5.736-3.429-8.669a47.415,47.415,0,0,1-2.591-8.758,12.608,12.608,0,0,1,.342-5.654,13.764,13.764,0,0,1,1.447-2.747c.569-.948,1.154-1.884,1.67-2.864,1.1-2.1,1.966-4.354,2.944-6.519q.743-1.643,1.512-3.272c.239-.5.466-1.02.737-1.506.158-.282.359-.645.675-.752.258-.086.294-.035.306.26a7.845,7.845,0,0,1-.257,1.761c-.246,1.242-.564,2.47-.872,3.7-.514,2.051-1.026,4.1-1.477,6.168-.3,1.364,1.727,1.947,2.025.579.438-2.013.935-4.009,1.436-6.006.287-1.143.581-2.286.826-3.439s.661-2.588.26-3.729a2.221,2.221,0,0,0-2.736-1.411,3.9,3.9,0,0,0-2.272,2.308c-1.155,2.377-2.231,4.794-3.3,7.212-.512,1.158-.991,2.341-1.575,3.463-.557,1.07-1.2,2.086-1.816,3.12a14.249,14.249,0,0,0-1.607,3.263,22.36,22.36,0,0,0-.473,2.668,15.09,15.09,0,0,0,.569,5.832c.422,1.678.957,3.328,1.517,4.962,1.291,3.764,2.738,7.488,4.325,11.132a1.037,1.037,0,0,0,1.437.391,1.137,1.137,0,0,0,.377-1.489Z" transform="translate(-182.011 -72.297)" fill="#333"/><path d="M349.963,127.757a4.88,4.88,0,0,1,.682-2.032c.071-.111.284-.284.063-.254a1.134,1.134,0,0,1,.35.091c.5.151.033-.042.06-.057.119-.065.341,1.287.347,1.426a13.908,13.908,0,0,1-.129,2.237c-.379,3.193-.679,6.4-.986,9.6-.306,3.182-.462,6.4-1.736,9.355-.279.648-.545,1.3-.842,1.941-.336.722-.73,1.408-1.021,2.153a5.476,5.476,0,0,0,.131,4.687,23.737,23.737,0,0,0,2.895,3.644c1.21,1.364,2.455,2.7,3.664,4.061.917,1.034,2.4-.509,1.485-1.542-1.148-1.3-2.328-2.563-3.481-3.855a22.169,22.169,0,0,1-2.75-3.41c-.814-1.4.081-2.986.7-4.248a32.166,32.166,0,0,0,1.829-4.442,25.745,25.745,0,0,0,.906-5.149c.188-1.8.357-3.6.528-5.4s.347-3.632.545-5.445a23.933,23.933,0,0,0,.345-4.433,5.035,5.035,0,0,0-.7-2.4,2.606,2.606,0,0,0-1.954-.969c-2.071-.173-2.853,2.812-3.035,4.445a1.075,1.075,0,0,0,1.05,1.089,1.1,1.1,0,0,0,1.05-1.089Z" transform="translate(-194.78 -67.377)" fill="#333"/><path d="M303.484,128.93a14.435,14.435,0,0,0,3.706-1.4,7.443,7.443,0,0,0,1.276-.9,2.667,2.667,0,0,0,.72-.921,1.142,1.142,0,0,0-.377-1.489,1.041,1.041,0,0,0-1.436.391,1.3,1.3,0,0,1-.084.166c-.016.026-.035.051-.05.078-.081.139.183-.214.067-.091s-.208.227-.325.33c-.039.034-.082.065-.119.1.048-.045.2-.153.06-.052-.087.063-.175.127-.263.187-.191.127-.388.245-.588.356-.225.124-.455.239-.689.346-.029.013-.234.1-.088.04s-.066.027-.1.039q-.21.086-.423.166a15.536,15.536,0,0,1-1.848.557,1.1,1.1,0,0,0-.734,1.339,1.069,1.069,0,0,0,1.292.761Z" transform="translate(-169.958 -67.806)" fill="#333"/><path d="M294.262,147.569a37.57,37.57,0,0,1-4.322-1.171l.771,1.05c-.142-2.158-.015-4.352.047-6.51q.114-3.953.286-7.9c.029-.705.063-1.41.088-2.115a1.079,1.079,0,0,0-1.05-1.089,18.724,18.724,0,0,0-3.655.573c-.647.161-1.289.349-1.92.569-.6.21-1.586.419-1.925,1.01a5.769,5.769,0,0,0-.5,1.78c-.17.92-.289,1.851-.4,2.781-.265,2.2-.444,4.42-.588,6.637q-.1,1.573-.168,3.148c-.054,1.308-.235,2.582-.394,3.882q-.679,5.551-.893,11.147a1.05,1.05,0,1,0,2.1,0q.154-3.913.528-7.812c.222-2.295.66-4.594.747-6.9.131-3.418.37-6.846.788-10.241.074-.605.182-1.379.309-2.067.054-.291.112-.582.185-.869.026-.1.053-.206.085-.308s.175-.449.019-.083l-.627.5A18.13,18.13,0,0,1,290.086,132l-1.05-1.089c-.158,4.481-.39,8.96-.451,13.444-.014,1.026-.038,2.061.029,3.084a1.118,1.118,0,0,0,.767,1.054,37.433,37.433,0,0,0,4.322,1.171,1.081,1.081,0,0,0,1.292-.76,1.1,1.1,0,0,0-.733-1.339Z" transform="translate(-157.289 -70.945)" fill="#333"/><path d="M359.114,143.831a52.209,52.209,0,0,1,2.74-7.257,12.451,12.451,0,0,1,2.742-4.122l-1.022.28a11.853,11.853,0,0,1,2.861,1.138c.542.277,1.078.573,1.593.9a4.244,4.244,0,0,1,1.016.79l-.164-1.319c-3,5.228-4.575,11.17-5.574,17.122-.346,2.062-.623,4.136-.868,6.214a1.078,1.078,0,0,0,1.05,1.089l-1.05-1.089a32.575,32.575,0,0,1-1.282,8.5,1.053,1.053,0,0,0,2.025.579,34.84,34.84,0,0,0,1.356-9.082,1.082,1.082,0,0,0-1.05-1.089l1.05,1.089c.722-6.134,1.753-12.418,4.132-18.125a36.426,36.426,0,0,1,2.023-4.112,1.143,1.143,0,0,0-.165-1.319,10.679,10.679,0,0,0-3.034-2.032,13.135,13.135,0,0,0-3.362-1.357c-1.175-.223-2.231,1.587-2.784,2.455a26.855,26.855,0,0,0-2.013,3.946,64.429,64.429,0,0,0-2.247,6.218,1.053,1.053,0,0,0,2.025.579Z" transform="translate(-200.824 -71.373)" fill="#333"/><path d="M307.937,148.577a4.056,4.056,0,0,0,2.042,1.651,4.669,4.669,0,0,0,2.235.363,1.089,1.089,0,0,0,.746-1.857,1.032,1.032,0,0,0-.746-.32,3.6,3.6,0,0,1-.838-.017l.279.039a4.506,4.506,0,0,1-1.138-.317l.251.11a3.78,3.78,0,0,1-.8-.469l.213.17a2.6,2.6,0,0,1-.457-.463l.164.22a2.268,2.268,0,0,1-.136-.21,1.03,1.03,0,0,0-1.437-.391,1.111,1.111,0,0,0-.377,1.49Z" transform="translate(-173.128 -80.293)" fill="#333"/><path d="M348.908,109.415a33.806,33.806,0,0,0,6.169-6.168,1.146,1.146,0,0,0,0-1.539,1.035,1.035,0,0,0-1.485,0,33.236,33.236,0,0,1-2.511,2.92q-.774.789-1.59,1.53-.42.38-.853.745l-.371.307c.063-.051-.135.107-.156.122l-.262.2a1.139,1.139,0,0,0-.377,1.489,1.041,1.041,0,0,0,1.437.391Z" transform="translate(-195.37 -55.406)" fill="#333"/><path d="M340.816,29.918a13.381,13.381,0,0,1,5.308,3.995,15.552,15.552,0,0,1,3.041,6.206l2.025-.579-.044-.191c-.306-1.364-2.332-.786-2.025.579l.044.191a1.046,1.046,0,0,0,1.292.76,1.094,1.094,0,0,0,.733-1.339,17.065,17.065,0,0,0-3.325-6.823,14.813,14.813,0,0,0-5.99-4.679,1.062,1.062,0,0,0-1.437.391,1.12,1.12,0,0,0,.377,1.489Z" transform="translate(-191.41 -15.247)" fill="#333"/><path d="M366.215,32.394A21.279,21.279,0,0,1,368.8,43.426a1.05,1.05,0,1,0,2.1,0A23.509,23.509,0,0,0,368.03,31.3c-.668-1.218-2.483-.122-1.814,1.1Z" transform="translate(-205.907 -16.811)" fill="#333"/></g></svg>