<svg xmlns="http://www.w3.org/2000/svg" xmlns:xlink="http://www.w3.org/1999/xlink" width="150" height="130" viewBox="0 0 150 130"><defs><clipPath id="a"><rect width="150" height="130" fill="#333"/></clipPath></defs><g clip-path="url(#a)"><path d="M272.382,147.775a17.858,17.858,0,0,0,1.3,3.915,6.862,6.862,0,0,0,1.832,2.508,30.1,30.1,0,0,0,5.892,3.6c1.214.614,2.3-1.1,1.085-1.713a28.8,28.8,0,0,1-5.36-3.2c-.173-.143-.342-.289-.5-.445-.081-.078-.16-.159-.237-.241-.228-.242.09.131-.1-.117a6.457,6.457,0,0,1-.695-1.267,16.479,16.479,0,0,1-1.14-3.559,1.1,1.1,0,0,0-1.321-.694,1,1,0,0,0-.751,1.22Z" transform="translate(-150.313 -85.951)" fill="#333"/><path d="M217.6,161.809a10.193,10.193,0,0,0,3.9-2.31,11.73,11.73,0,0,0,2.569-4.09.993.993,0,0,0-.751-1.22,1.114,1.114,0,0,0-1.323.693c-.056.158-.114.314-.179.468,0,0-.126.289-.055.134-.036.077-.073.153-.112.229a10.021,10.021,0,0,1-.538.936q-.28.433-.6.841c-.014.018-.171.212-.111.14s-.1.117-.116.134c-.12.136-.245.27-.37.4a5.667,5.667,0,0,1-.7.651l0,0-.092.06c-.1.06-.2.124-.3.182q-.237.137-.481.262-.895.432-1.833.779a.953.953,0,0,0-.386,1.357,1.164,1.164,0,0,0,1.471.356Z" transform="translate(-119.203 -90.431)" fill="#333"/><path d="M287.922,101.171a2.937,2.937,0,0,1,3.458-.007A3.863,3.863,0,0,1,292.8,104.8c-.414,3.213-3.479,5.594-6.5,6.81a.957.957,0,0,0-.386,1.357,1.156,1.156,0,0,0,1.471.356,12.393,12.393,0,0,0,7.1-6.607c1.139-2.875.211-6.627-3.143-7.8a5.123,5.123,0,0,0-4.944.853c-1.017.871.507,2.271,1.523,1.406Z" transform="translate(-157.722 -57.853)" fill="#333"/><path d="M202.311,101.758a32.221,32.221,0,0,0,2.2,10.9,20.9,20.9,0,0,0,6.846,9.085,20.6,20.6,0,0,0,21.921.777,25.262,25.262,0,0,0,8.42-8.281c.689-1.11-1.169-2.111-1.857-1a23.405,23.405,0,0,1-6.59,6.888,18.312,18.312,0,0,1-19.5.776,17.967,17.967,0,0,1-6.819-7.956,29.472,29.472,0,0,1-2.47-11.19C204.412,100.484,202.26,100.478,202.311,101.758Z" transform="translate(-111.658 -59.131)" fill="#333"/><path d="M236.775,36.757a26,26,0,0,0-8.988-3.464,31.8,31.8,0,0,0-10.685-.331,25.382,25.382,0,0,0-14.5,7.148,23.34,23.34,0,0,0-6.491,13.382,31.174,31.174,0,0,0-.289,4.481c.008,1.695.229,3.348.366,5.035a52.949,52.949,0,0,1-.436,10.288,73.958,73.958,0,0,0-.78,9.555,11.737,11.737,0,0,0,.546,3.852,9.468,9.468,0,0,0,2.3,3.508,12.967,12.967,0,0,0,2.073,1.61,1.137,1.137,0,0,0,1.471-.356.97.97,0,0,0-.386-1.358,8.854,8.854,0,0,1-2.924-2.956,6.952,6.952,0,0,1-.876-3.052,47.983,47.983,0,0,1,.506-8.9,78.771,78.771,0,0,0,.759-9.868c-.016-1.645-.264-3.256-.376-4.893a36.189,36.189,0,0,1-.039-4.534,22.074,22.074,0,0,1,4.9-13.088A22.718,22.718,0,0,1,215,35.391a28.144,28.144,0,0,1,18.487,1.863,19.851,19.851,0,0,1,2.2,1.217,1.136,1.136,0,0,0,1.472-.356.971.971,0,0,0-.386-1.358Z" transform="translate(-107.603 -19.159)" fill="#333"/><path d="M296.8,99.926c2.278-.8,4.34-2.067,5.189-4.264a11.427,11.427,0,0,0,.187-5.771c-.293-1.746-.96-3.412-1.415-5.126a40.182,40.182,0,0,1-1.01-5.167,61.813,61.813,0,0,1-.437-9.138l-.79.957a1.064,1.064,0,0,0,.79-.957,41.4,41.4,0,0,0,.106-8.728,23.927,23.927,0,0,0-3.038-9.765,16.47,16.47,0,0,0-3.444-4.382c-1.013-.868-2.537.531-1.521,1.4a17.55,17.55,0,0,1,4.814,7.849,27.085,27.085,0,0,1,1.165,8.373,37.8,37.8,0,0,1-.231,5.25l.79-.953a1.042,1.042,0,0,0-.789.957,55.259,55.259,0,0,0,1.272,13.829c.307,1.3.717,2.56,1.108,3.835a14.877,14.877,0,0,1,.707,3.975c.013.449.006.9-.013,1.35-.005.121-.012.242-.021.363-.006.076-.014.152-.021.228-.026.286.016-.041-.017.132a3.8,3.8,0,0,1-.857,1.943,7.134,7.134,0,0,1-3.092,1.9,1.012,1.012,0,0,0-.751,1.22,1.1,1.1,0,0,0,1.323.693Z" transform="translate(-160.653 -27.753)" fill="#333"/><path d="M259.285,69.9a32.684,32.684,0,0,0,3.764,7.435c1.53,2.093,3.528,4.391,6.066,5.481a1.161,1.161,0,0,0,1.471-.356A.959.959,0,0,0,270.2,81.1a13.957,13.957,0,0,1-5.377-4.885,30.8,30.8,0,0,1-3.464-6.845,1.119,1.119,0,0,0-1.323-.693.994.994,0,0,0-.751,1.221Z" transform="translate(-143.083 -40.272)" fill="#333"/><path d="M228.945,68.669a23.938,23.938,0,0,1-5.653,4.619,32.414,32.414,0,0,1-3.427,1.778c-.6.268-1.206.521-1.824.751a10.717,10.717,0,0,1-1.927.635h.572q.293.832.33.4c.011-.067.022-.135.033-.2q.04-.251.078-.5c.052-.354.1-.709.147-1.063.083-.667.147-1.336.2-2.006.069-.9-1.2-1.25-1.837-.7a143.547,143.547,0,0,1-11.25,8.961A.98.98,0,0,0,204,82.693a1.134,1.134,0,0,0,1.471.356,148.772,148.772,0,0,0,11.686-9.271l-1.837-.7c-.08,1.052-.191,2.1-.363,3.146a1.985,1.985,0,0,0,.078,1.429,1.6,1.6,0,0,0,1.363.748,4.349,4.349,0,0,0,1.327-.353c.475-.163.946-.337,1.414-.518.9-.349,1.787-.725,2.654-1.141a27.38,27.38,0,0,0,8.672-6.317.964.964,0,0,0,0-1.4,1.15,1.15,0,0,0-1.521,0Z" transform="translate(-112.517 -40.112)" fill="#333"/><path d="M157.91,244.823a7.136,7.136,0,0,0-1.889,1.549,3.507,3.507,0,0,0-1.057,2.064,10.481,10.481,0,0,0,.63,2.664c.734,2.3,1.658,4.553,2.6,6.789a37.685,37.685,0,0,0,3.044,6.25,11.776,11.776,0,0,0,3.351,3.577,6.8,6.8,0,0,0,4.8,1.031,9.973,9.973,0,0,0,4.333-2.162A8.572,8.572,0,0,0,176.529,263c.444-1.212-1.633-1.733-2.074-.527a6.641,6.641,0,0,1-1.9,2.42,8.6,8.6,0,0,1-3.081,1.788c-2.751.818-4.923-1.372-6.28-3.39a31.651,31.651,0,0,1-2.712-5.419c-.858-2.019-1.69-4.051-2.416-6.115a24.671,24.671,0,0,1-.864-2.852c-.023-.1-.045-.21-.064-.314-.007-.037-.012-.074-.019-.11-.026-.137.054.178.008.056-.068-.177.068-.146-.035-.009.111-.147.179-.333.281-.489a4.747,4.747,0,0,1,1.622-1.5c1.17-.678.09-2.395-1.085-1.714Z" transform="translate(-85.527 -143.525)" fill="#333"/><path d="M287.067,234.117c-.065,2.493-.055,4.988-.119,7.482a1.079,1.079,0,0,0,2.151,0v0c.065-2.493.055-4.988.119-7.482a1.079,1.079,0,0,0-2.151,0" transform="translate(-158.372 -136.756)" fill="#333"/><path d="M192.835,231.041a12.614,12.614,0,0,0-1.045,4.08,11.594,11.594,0,0,0,.729,4.167,73.212,73.212,0,0,1,2.264,7.545q.206.946.382,1.9c.1.532.016-.124.045.278.01.141.022.282.029.424.032.71.006,1.423-.03,2.132-.1,1.955-.3,3.906-.533,5.851-.258,2.152-.558,4.3-.952,6.436a1.014,1.014,0,0,0,.751,1.22,1.1,1.1,0,0,0,1.323-.693A104.34,104.34,0,0,0,197.31,252.4a17.231,17.231,0,0,0-.109-4.391,49.6,49.6,0,0,0-2-7.534,17.563,17.563,0,0,1-1.242-4.408,9.888,9.888,0,0,1,.951-4.5.994.994,0,0,0-.751-1.221,1.113,1.113,0,0,0-1.323.693Z" transform="translate(-105.852 -135.107)" fill="#333"/><path d="M280.533,230.253c.278,6.473.561,13.014-.324,19.46a44.929,44.929,0,0,1-.861,4.5q-.276,1.134-.608,2.255c-.052.177-.111.349-.174.523s.086-.165,0,.01c-.042.083-.082.165-.125.246a10.342,10.342,0,0,1-4.122,4.348,8.6,8.6,0,0,1-3.618.73,13.765,13.765,0,0,1-3.964-.382,17.181,17.181,0,0,1-6.914-3.911,127.836,127.836,0,0,1-9.405-9.264c-1.464-1.556-2.908-3.129-4.3-4.743q-.216-.252-.432-.506l-.081-.1-.207-.248c-.229-.278-.455-.557-.676-.841-.176-.226-.349-.455-.512-.688-.042-.06-.155-.236-.147-.216a1.529,1.529,0,0,1,.083-.641,5.8,5.8,0,0,1,.972-1.518.958.958,0,0,0-.386-1.358,1.152,1.152,0,0,0-1.471.356c-.873,1.125-1.882,2.7-1.1,4.1a11.2,11.2,0,0,0,1.1,1.469c1.281,1.584,2.649,3.108,4.033,4.616,3.215,3.5,6.533,6.958,10.087,10.172a23.225,23.225,0,0,0,6.577,4.486,16.908,16.908,0,0,0,9.137.955c2.68-.407,4.743-2.307,6.224-4.293a10.074,10.074,0,0,0,1.344-2.306,26.775,26.775,0,0,0,1.118-4.322c1.361-6.614,1.3-13.422,1.021-20.122q-.057-1.383-.117-2.766c-.055-1.272-2.206-1.279-2.151,0Z" transform="translate(-133.498 -134.509)" fill="#333"/><path d="M194.755,174.685c2.686-2.178,6.067-3.483,9.273-4.864l-1.471-.356c2.567,3.486,7.423,5.068,11.8,5.389a48.3,48.3,0,0,0,16.394-1.744,75.26,75.26,0,0,0,8.424-2.946h-1.086a37.774,37.774,0,0,1,9.79,6.394A13.681,13.681,0,0,1,251.185,181a24.347,24.347,0,0,1,1.707,6.183,62.917,62.917,0,0,1,.6,7.1c.055,1.272,2.206,1.279,2.151,0-.195-4.5-.464-9.188-2.223-13.435a15.467,15.467,0,0,0-3.455-5.148,33.489,33.489,0,0,0-5.227-4.123,43.334,43.334,0,0,0-5.182-2.947,2.622,2.622,0,0,0-.784-.3,2.021,2.021,0,0,0-1.034.26q-.915.372-1.841.723c-1.171.441-2.355.856-3.551,1.236a48.582,48.582,0,0,1-15.109,2.436,23.054,23.054,0,0,1-7.435-1.033,11.094,11.094,0,0,1-5.387-3.491,1.166,1.166,0,0,0-1.472-.356c-3.393,1.461-6.866,2.869-9.708,5.174-1.042.845.484,2.243,1.521,1.4Z" transform="translate(-106.458 -98.542)" fill="#333"/><path d="M236.666,241.07c.6.307,1.188.62,1.8.895q.244.1.475.231c.065.037.175.117.06.026a2.091,2.091,0,0,1,.205.189c-.1-.1-.011-.011.033.05s.087.124.129.19c.094.145.185.292.282.435a20.3,20.3,0,0,0,2.676,2.929,1.151,1.151,0,0,0,1.521,0,.957.957,0,0,0,0-1.4c-.473-.466-.963-.918-1.421-1.4-.1-.1-.194-.207-.288-.311q-.085-.1-.169-.193c.1.111.029.033-.026-.035a9.786,9.786,0,0,1-.6-.835,4.834,4.834,0,0,0-.684-.9,3.582,3.582,0,0,0-1.023-.652c-.643-.289-1.267-.612-1.892-.933a1.127,1.127,0,0,0-1.471.356A.951.951,0,0,0,236.666,241.07Z" transform="translate(-130.326 -140.331)" fill="#333"/><path d="M210.725,191.689c-1.305-.739-2.646-1.424-3.992-2.1-1.279-.642-2.629-1.219-3.854-1.946-.339-.2-1.1-.612-.851-1.059.221-.4.814-.387,1.227-.339a10.116,10.116,0,0,1,2.278.679q1.116.414,2.222.848,2.339.926,4.638,1.938c1.552.681,3.146,1.346,4.641,2.13a9.245,9.245,0,0,1,3.062,3.293,47.774,47.774,0,0,1,2.539,4.118c1.549,2.824,2.809,6.384,6.084,7.9,1.234.572,2.324-1.14,1.085-1.714a7.118,7.118,0,0,1-2.991-2.9c-.946-1.486-1.652-3.092-2.509-4.622a48.184,48.184,0,0,0-2.855-4.5,16.744,16.744,0,0,0-1.629-2.041,7.56,7.56,0,0,0-2.223-1.5c-3.334-1.56-6.712-3.036-10.165-4.361-1.615-.62-3.374-1.455-5.174-1.211s-3.028,2.047-2.113,3.6a5.308,5.308,0,0,0,2.213,1.773c.767.394,1.546.769,2.319,1.153,1.671.831,3.342,1.667,4.96,2.584,1.182.67,2.264-1.046,1.085-1.713Z" transform="translate(-110.293 -108.086)" fill="#333"/><path d="M215.486,202.316q-1.5,1.027-2.937,2.132a13.128,13.128,0,0,0-2.411,2.137,2.947,2.947,0,0,0-.476,2.715,4.065,4.065,0,0,0,2.016,2.126c1.187.661,2.269-1.052,1.085-1.714a3.2,3.2,0,0,1-.818-.6c-.127-.124,0,.021-.05-.06l-.125-.194c-.049-.076-.041-.1-.007,0-.031-.085-.052-.168-.079-.254s-.014-.1-.005,0c-.007-.078-.01-.155-.01-.232a1.454,1.454,0,0,1,.013-.242c-.022.121.034-.078.045-.114.026-.081-.026.016.048-.108a2.4,2.4,0,0,1,.151-.229,3.547,3.547,0,0,1,.287-.305,34.86,34.86,0,0,1,4.356-3.341.98.98,0,0,0,.386-1.358,1.136,1.136,0,0,0-1.472-.356Z" transform="translate(-115.636 -118.604)" fill="#333"/><path d="M220.467,210.319a17.715,17.715,0,0,0-2.981,1.992,15.486,15.486,0,0,0-1.251,1.157,6.309,6.309,0,0,0-1.1,1.364,3.411,3.411,0,0,0-.4,1.654,2.66,2.66,0,0,0,.762,1.646,4.435,4.435,0,0,0,2.926,1.208,1.043,1.043,0,0,0,1.075-.992,1.061,1.061,0,0,0-1.075-.992c-.066-.007-.364-.062-.505-.1-.1-.026-.207-.057-.308-.092s.1.062-.061-.03c-.078-.044-.16-.087-.239-.131-.17-.093.056.056-.026-.019-.051-.047-.1-.09-.154-.138s-.171-.228-.045-.044a1.11,1.11,0,0,1-.2-.347c-.035-.11,0,.121,0-.065-.009-.256-.05.139.011-.135a1.917,1.917,0,0,1,.4-.884,14.106,14.106,0,0,1,4.26-3.338.951.951,0,0,0,.386-1.358,1.127,1.127,0,0,0-1.472-.356Z" transform="translate(-118.515 -123.298)" fill="#333"/><path d="M226.314,216.6l-2.267,1.824a19.005,19.005,0,0,0-2.037,1.695c-1.3,1.394-.968,3.14.1,4.555a7.7,7.7,0,0,0,3.181,2.614c1.4.566,3.54.945,4.62-.331a2.231,2.231,0,0,0,.186-2.5,3.637,3.637,0,0,0-.829-.985c-.175-.158-.358-.308-.535-.467-.059-.053-.118-.107-.175-.162s-.118-.117-.173-.179q-.122-.15,0,.059l-.147.5a2.354,2.354,0,0,1,.466-.381l.58-.469a.939.939,0,0,0,0-1.4,1.14,1.14,0,0,0-1.521,0c-.639.517-1.561,1.027-1.539,1.907.02.785.837,1.395,1.4,1.892.248.217.862.741.588,1.01a2.581,2.581,0,0,1-1.041-.014,4.716,4.716,0,0,1-2.7-1.488c-.638-.663-1.694-1.87-.954-2.753a14.259,14.259,0,0,1,2.037-1.695l2.267-1.824a.939.939,0,0,0,.013-1.4,1.14,1.14,0,0,0-1.521-.012l-.013.012Z" transform="translate(-122.065 -126.89)" fill="#333"/><path d="M270.231,245.717c-3.616-3.212-6.945-6.677-10.458-9.984-.727-.685-1.463-1.361-2.221-2.015q-.508-.439-1.033-.861a3.59,3.59,0,0,0-1.338-.847,1.647,1.647,0,0,0-1.691.566c-.358.5-.6,1.08-.936,1.592a24.257,24.257,0,0,1-2.249,2.852,33.265,33.265,0,0,1-2.995,2.9,7.418,7.418,0,0,1-3.034,1.654,1,1,0,1,0,.572,1.914,13.163,13.163,0,0,0,5.887-3.912,34.725,34.725,0,0,0,2.526-2.84c.406-.506.794-1.024,1.149-1.561.339-.511.577-1.1.936-1.592l-.386.356c-.206.145-.717-.262-.277.078l.314.248q.382.307.755.624c.544.461,1.075.935,1.6,1.415,1.191,1.091,2.347,2.214,3.5,3.341,2.584,2.526,5.147,5.071,7.86,7.482,1,.886,2.52-.515,1.521-1.4Z" transform="translate(-134.402 -136.072)" fill="#333"/><path d="M153.443,167.694q-.64-1.748-1.235-3.51-.291-.859-.574-1.719a5.192,5.192,0,0,1-.427-1.5c0-.82.73-1.088,1.464-1.281q1.633-.428,3.271-.848,3.331-.857,6.666-1.7c.742-.188,1.708-.637,2.455-.3.646.3.752,1.024.95,1.6q3.33,9.715,6.721,19.41c.235.673.5,1.4-.234,1.912a4.8,4.8,0,0,1-1.286.473q-.852.272-1.706.537-2.753.864-5.514,1.707a1,1,0,1,0,.572,1.913q2.681-.817,5.355-1.657,1.655-.452,3.254-1.056a3.208,3.208,0,0,0,1.963-2.594,5.767,5.767,0,0,0-.572-2.46q-.4-1.161-.81-2.322-.967-2.777-1.929-5.555-1.877-5.415-3.739-10.837a4.73,4.73,0,0,0-1.3-2.356,3.789,3.789,0,0,0-3.375-.681c-2.391.583-4.77,1.207-7.152,1.819q-2,.514-4.005,1.036a3.87,3.87,0,0,0-3.019,2.232c-.478,1.281.185,2.609.592,3.831q.74,2.22,1.542,4.423c.44,1.2,2.519.687,2.074-.527Z" transform="translate(-82.274 -90.774)" fill="#333"/><path d="M160.136,170.745q1.149-.312,2.3-.616a1.111,1.111,0,0,0,.643-.455.943.943,0,0,0,.108-.764,1.016,1.016,0,0,0-.493-.593,1.193,1.193,0,0,0-.829-.1q-1.15.306-2.3.616a1.11,1.11,0,0,0-.643.455.945.945,0,0,0-.108.764,1.016,1.016,0,0,0,.493.593,1.187,1.187,0,0,0,.829.1Z" transform="translate(-87.632 -98.659)" fill="#333"/><path d="M158.692,195.4c3.257-1.857,6.534-3.712,9.869-5.448a2.516,2.516,0,0,1,1.944-.408.615.615,0,0,1,.411.5c.01.062-.006.279,0,.269-.021.079-.093.165-.055.124-.033.035-.309.26-.177.165-.076.053-.159.1-.239.147-.448.268-.9.527-1.352.8-.864.521-1.718,1.057-2.569,1.6-1.966,1.25-3.918,2.519-5.942,3.688-1.17.676-.09,2.394,1.086,1.713,2.054-1.187,4.033-2.477,6.03-3.744,1-.635,2-1.263,3.025-1.867a5.758,5.758,0,0,0,1.963-1.46,2.478,2.478,0,0,0,.03-2.64,3.111,3.111,0,0,0-2.73-1.339,6.744,6.744,0,0,0-3.081,1.054l-2.82,1.541c-2.167,1.186-4.332,2.376-6.476,3.6-1.175.67-.1,2.387,1.086,1.713Z" transform="translate(-86.706 -109.981)" fill="#333"/><path d="M178.386,197.466a1.528,1.528,0,0,1,.714.046c-.205-.071.25.174.068.039.147.11-.01-.061.1.1a.9.9,0,0,1-.117,1.136c.095-.1-.094.074-.116.092-.123.1-.26.192-.39.286-.231.165-.464.327-.7.489q-.823.571-1.658,1.127c-1.959,1.31-3.972,2.554-5.91,3.891a.979.979,0,0,0-.386,1.358,1.134,1.134,0,0,0,1.471.356c1.752-1.208,3.568-2.336,5.343-3.514,1.058-.7,2.108-1.413,3.139-2.15a4.119,4.119,0,0,0,1.2-1.128,2.717,2.717,0,0,0,.363-2.058,2.823,2.823,0,0,0-3.121-2.061,1.062,1.062,0,0,0-1.075.992,1.045,1.045,0,0,0,1.075.992Z" transform="translate(-93.747 -114.66)" fill="#333"/><path d="M181.874,209.064c.019,0,.358-.041.14-.026.1-.006.189,0,.285-.006-.138,0-.112-.03.012.01q.114.033-.064-.029c.085.05.1.052.033.008-.056-.106.061.059.09.09-.128-.139.058.105.067.124a1.015,1.015,0,0,1,.071.235c-.012-.129-.024.155-.007.041.014-.095-.034.141-.041.165-.02.064-.123.255-.033.1a2.993,2.993,0,0,1-.224.345,10,10,0,0,1-.742.816c-1.389,1.406-3,2.609-4.517,3.888a.939.939,0,0,0,.013,1.4,1.14,1.14,0,0,0,1.508,0,41.123,41.123,0,0,0,5.422-4.892,2.657,2.657,0,0,0,.471-2.981A2.369,2.369,0,0,0,183,207.169a3.389,3.389,0,0,0-1.7-.016,1,1,0,0,0-.751,1.22,1.111,1.111,0,0,0,1.323.693Z" transform="translate(-97.487 -121.46)" fill="#333"/><path d="M152.361,190.079q2.431-3.21,4.77-6.483a2.969,2.969,0,0,0,.423-3.269,2.785,2.785,0,0,0-3.259-1.033,6.987,6.987,0,0,0-2.907,2.232q-1.233,1.282-2.359,2.646c-.756.909-1.49,1.843-2.166,2.806a5.954,5.954,0,0,0-1.113,2.8c-.1.827-.173,1.669-.219,2.5a7.5,7.5,0,0,0,.336,3.355,13.467,13.467,0,0,0,1.705,2.758c.577.773,1.112,1.569,1.709,2.331,1.275,1.631,2.654,3.287,2.99,5.331.168,1.026-.061,2.145.627,3.046a3.934,3.934,0,0,0,3.35,1.107,10.267,10.267,0,0,0,3.963-1.084,11.5,11.5,0,0,0,1.675-1.016,4.874,4.874,0,0,0,1.4-1.318,5.682,5.682,0,0,0,.543-2.067,13.8,13.8,0,0,0,.182-1.929,11.819,11.819,0,0,0-.707-3.933c-.415-1.213-2.493-.695-2.074.527a10.66,10.66,0,0,1,.365,5.721,1.524,1.524,0,0,1-.535,1.055,8.15,8.15,0,0,1-1.18.842,9.176,9.176,0,0,1-2.6,1.064,5.984,5.984,0,0,1-1.272.163,2.454,2.454,0,0,1-1.273-.2.846.846,0,0,1-.221-.651c-.037-.479-.037-.954-.1-1.431a10.96,10.96,0,0,0-2.368-5.066c-1.049-1.382-2.094-2.759-3.109-4.162a5.991,5.991,0,0,1-1.235-2.346,11.5,11.5,0,0,1,.025-2.69c.055-.659.09-1.33.188-1.984a5.119,5.119,0,0,1,1.142-2.174,45.7,45.7,0,0,1,3.854-4.592c.437-.455.867-.928,1.341-1.35a1.61,1.61,0,0,1,1.139-.469c.8.128.082,1.21-.175,1.567q-2.317,3.224-4.71,6.4a.958.958,0,0,0,.386,1.357,1.15,1.15,0,0,0,1.471-.356Z" transform="translate(-80.299 -105.078)" fill="#333"/><path d="M22.363,1.792A32.864,32.864,0,0,0,4.786,15,31.282,31.282,0,0,0,.213,35.584,30.55,30.55,0,0,0,7.524,52.79a31.183,31.183,0,0,0,16.242,9.234,45.93,45.93,0,0,0,11.168,1.131,42.683,42.683,0,0,0,13.611-2.278q1.495-.533,2.934-1.19l-.829.1c3.381,1.276,6.794,2.47,10.226,3.624A1.044,1.044,0,0,0,62.2,62.19c-.843-2.94-1.665-5.885-2.574-8.808l-.276.965a28.965,28.965,0,0,0,8.1-15.163,33.96,33.96,0,0,0-.634-17,30.6,30.6,0,0,0-8.134-12.9,33.773,33.773,0,0,0-14-7.845,39.652,39.652,0,0,0-19.723-.374c-.876.209-1.74.455-2.595.725a1,1,0,1,0,.572,1.913,37.252,37.252,0,0,1,20.958-.413,31.414,31.414,0,0,1,14.281,8.4A28.425,28.425,0,0,1,65.51,25.642a31.659,31.659,0,0,1,.442,8.846,32.5,32.5,0,0,1-2.123,9.439,25.507,25.507,0,0,1-4.608,7.565q-.37.417-.759.818c-.3.314-.786.654-.91,1.069a2.407,2.407,0,0,0,.238,1.3q.177.579.35,1.155c.425,1.414.83,2.834,1.234,4.253q.375,1.316.751,2.631l1.323-1.22c-2.24-.754-4.478-1.517-6.7-2.319q-1.448-.523-2.887-1.064a2.763,2.763,0,0,0-.925-.276,2.1,2.1,0,0,0-.848.274c-.483.217-.972.423-1.468.613a40.411,40.411,0,0,1-14.1,2.45c-7.139.056-14.335-1.43-20.217-5.254a26.385,26.385,0,0,1-10.8-14.683,31.28,31.28,0,0,1,.968-21.209A29.841,29.841,0,0,1,20.218,4.716c.887-.379,1.8-.712,2.718-1.011a1.009,1.009,0,0,0,.751-1.22,1.1,1.1,0,0,0-1.323-.693" transform="translate(0 -0.001)" fill="#333"/><path d="M237.91,118.654a9.4,9.4,0,0,0-.385,1.04c-.188.589-.414,1.329.121,1.827a1.768,1.768,0,0,0,.394.263,2,2,0,0,0,.464.165,3.516,3.516,0,0,0,.663.041,1.152,1.152,0,0,0,.762-.289.939.939,0,0,0,0-1.4,1.18,1.18,0,0,0-.762-.289,2.891,2.891,0,0,1-.35,0l.286.036a.943.943,0,0,1-.172-.045l.257.1a1.2,1.2,0,0,1-.231-.127l.218.155-.008-.007.168.2a.112.112,0,0,1-.009-.016l.108.237a.187.187,0,0,1-.01-.038l.039.264a.625.625,0,0,1,.007-.156l-.039.264a5.212,5.212,0,0,1,.262-.931c.09-.256.179-.514.292-.762a.924.924,0,0,0-.108-.764,1.127,1.127,0,0,0-1.471-.356l-.218.155a.973.973,0,0,0-.276.438Z" transform="translate(-130.977 -69.178)" fill="#333"/><path d="M220.522,107.3c-.3.881-.168,2.922,1.571,3.126,2.305.028,2.487-2.434,1.739-3.606a1.855,1.855,0,0,0-3.31.48" transform="translate(-121.639 -62.183)" fill="#333"/><path d="M259.805,107.3c.288.931.039,3.056-1.865,3.2-2.509-.062-2.587-2.638-1.714-3.832a2.052,2.052,0,0,1,3.58.631" transform="translate(-141.137 -62.108)" fill="#333"/><path d="M235.492,137.4a8.612,8.612,0,0,0,3.293.278,9.884,9.884,0,0,0,3.533-.928.959.959,0,0,0,.386-1.357,1.152,1.152,0,0,0-1.471-.356c-.1.049-.2.1-.3.141,0,0-.247.1-.107.047s-.05.017-.073.026c-.236.084-.476.157-.72.219s-.5.117-.759.16l-.182.029c-.023,0-.22.032-.085.014s-.062.007-.086.009l-.229.022a9.584,9.584,0,0,1-1.473.011l-.212-.018c-.187-.017.036.01.037.006a2.373,2.373,0,0,1-.319-.05,5.556,5.556,0,0,1-.661-.165,1.1,1.1,0,0,0-1.323.693,1.008,1.008,0,0,0,.751,1.22Z" transform="translate(-129.539 -79.142)" fill="#333"/><path d="M63.978,62.045a28.136,28.136,0,0,0,.342,4.2,6.329,6.329,0,0,0,.468,1.971,2.2,2.2,0,0,0,1.442.988,5.861,5.861,0,0,0,1.479.213,1.9,1.9,0,0,0,1.337-.471,8.308,8.308,0,0,0,1.879-2.393,25.774,25.774,0,0,0,1.486-3.431A.992.992,0,0,0,71.66,61.9a1.117,1.117,0,0,0-1.323.693c-.179.465-.355.931-.538,1.394q-.113.283-.233.565l-.074.169c0,.01-.066.148-.021.048s-.03.064-.042.088l-.08.165a10.945,10.945,0,0,1-.68,1.185q-.2.3-.419.592c-.066.088-.134.175-.2.262-.186.24.114-.094-.056.062-.119.11-.235.222-.358.328-.057.05-.126.1-.179.149-.076.078.131-.091.124-.086.234-.127.266-.089.155-.064.045-.01.278-.009.069-.017-.076,0-.151,0-.227-.006s-.173-.015-.259-.021c.248.019-.008,0-.115-.024a5.546,5.546,0,0,1-.544-.137c-.2-.058.179.034-.006-.005.012,0-.112-.056-.109-.06.015-.022.153.14.172.154-.112-.086-.03-.091-.008-.011-.013-.044-.026-.088-.037-.134-.031-.124-.054-.251-.079-.377q-.089-.455-.164-.912a25.493,25.493,0,0,1-.294-3.851,1.079,1.079,0,0,0-2.151,0Z" transform="translate(-35.311 -35.816)" fill="#333"/><path d="M66.962,95.7c.148-4.611.526-9.23,1-13.822q.089-.866.193-1.731.045-.36.09-.719c.013-.1.028-.2.042-.3.022-.153-.025.165,0,.019.009-.064.019-.127.029-.191a1.018,1.018,0,0,0-.751-1.221,1.1,1.1,0,0,0-1.323.693c-.714,4.6-.99,9.29-1.269,13.931-.067,1.114-.127,2.228-.163,3.343-.041,1.277,2.11,1.276,2.151,0Z" transform="translate(-35.769 -45.578)" fill="#333"/><path d="M57.524,43.1c-.857-.957-1.748-1.89-2.677-2.786a28.98,28.98,0,0,0-3.12-2.512,1.1,1.1,0,0,1-.593-1.189,2.1,2.1,0,0,1,1.125-1.3c1.407-.779,3.128-.894,4.587-1.587a13.91,13.91,0,0,0,1.91-1.314,3.327,3.327,0,0,1,2.135-.475,11.91,11.91,0,0,1,2.317.279,4.411,4.411,0,0,1,1.828,1.09A5.445,5.445,0,0,0,67.2,34.411a5.374,5.374,0,0,1,1.979.747,5.646,5.646,0,0,1,1.344,1.527,2.739,2.739,0,0,1,.587,2.056,2.983,2.983,0,0,1-1.271,1.5,18.2,18.2,0,0,1-2.3,1.332,24.242,24.242,0,0,1-2.668,1.171,9.509,9.509,0,0,0-2.324,1.011l.543-.135a29.759,29.759,0,0,1-6.033-.773,1.12,1.12,0,0,0-1.323.693.994.994,0,0,0,.751,1.22,31.9,31.9,0,0,0,6.43.851,2.749,2.749,0,0,0,1.279-.492,12.78,12.78,0,0,1,1.344-.5,28.946,28.946,0,0,0,3.088-1.336c1.758-.894,3.866-2,4.519-3.873.664-1.906-.708-4.118-2.154-5.419A6.2,6.2,0,0,0,68.215,32.6a4.535,4.535,0,0,1-1.258-.413,11.038,11.038,0,0,1-1.109-.885,5.884,5.884,0,0,0-2.882-1.153,12.716,12.716,0,0,0-3.357-.145,5.65,5.65,0,0,0-2.86,1.384,7.07,7.07,0,0,1-2.635,1.169c-2.024.551-4.19,1.237-4.959,3.245a2.826,2.826,0,0,0,.559,2.957,20.094,20.094,0,0,0,2.214,1.69A39.648,39.648,0,0,1,56.006,44.5a1.15,1.15,0,0,0,1.521,0,.958.958,0,0,0,0-1.4Z" transform="translate(-27.021 -17.573)" fill="#333"/><path d="M71.905,40.589l.067.025-.257-.1a3.194,3.194,0,0,1,.688.372l-.217-.155a3.049,3.049,0,0,1,.562.52l-.168-.2a2.856,2.856,0,0,1,.239.336,1.1,1.1,0,0,0,.643.455.886.886,0,0,0,.429.018.852.852,0,0,0,.4-.118,1.016,1.016,0,0,0,.493-.593.978.978,0,0,0-.108-.765,4.342,4.342,0,0,0-.46-.6,2.971,2.971,0,0,0-.379-.36,4.825,4.825,0,0,0-.627-.431,4.881,4.881,0,0,0-.733-.318.886.886,0,0,0-.429-.018.852.852,0,0,0-.4.118.951.951,0,0,0-.386,1.357h0l.168.2a1.089,1.089,0,0,0,.475.255Z" transform="translate(-39.249 -22.667)" fill="#333"/><path d="M77.444,51.084q.118-.368.255-.73.083-.219.173-.436c.026-.064.053-.127.08-.19.052-.12.056-.159,0-.016a4.647,4.647,0,0,1,.408-.781c.075-.124.155-.248.241-.366a1.639,1.639,0,0,0,.108-.139c-.134.232-.075.088,0,.017.041-.041.09-.079.131-.121.111-.121-.224.115-.066.044a.951.951,0,0,0,.116-.062q-.269.1-.1.041c.031-.01.063-.019.095-.028.078-.021.156-.034.234-.051.21-.047-.237.017,0,0,.167-.013.334-.022.5-.024.672-.006,1.344.075,2.016.1a1.045,1.045,0,0,0,1.075-.992,1.057,1.057,0,0,0-1.075-.992c-1.443-.041-3.286-.429-4.414.653a5.447,5.447,0,0,0-1.1,1.644,16.282,16.282,0,0,0-.758,1.909.986.986,0,0,0,.751,1.22,1.089,1.089,0,0,0,1.323-.693Z" transform="translate(-41.575 -27.131)" fill="#333"/><path d="M63.259,45.487q.243.01.483.038l-.286-.036a5.853,5.853,0,0,1,1.347.34l-.257-.1a5.573,5.573,0,0,1,1.161.623L65.49,46.2c.1.072.2.145.29.222a1.186,1.186,0,0,0,.762.289,1.037,1.037,0,0,0,1.078-.99.957.957,0,0,0-.316-.705A6.8,6.8,0,0,0,63.261,43.5a1.044,1.044,0,0,0-1.075.992,1.059,1.059,0,0,0,1.075.992Z" transform="translate(-34.322 -25.518)" fill="#333"/><path d="M58.906,85.594c-1.08-1.14-2.13-2.325-3.271-3.414A12.729,12.729,0,0,0,51.9,79.723c-.555-.242-1.465-.094-1.579.593-.755,4.54,2.609,8.66,6.927,10.459a1.163,1.163,0,0,0,1.472-.356.958.958,0,0,0-.386-1.358,10.382,10.382,0,0,1-4.6-3.431A7.949,7.949,0,0,1,52.6,83.2a6.223,6.223,0,0,1-.2-1.194c-.017-.226-.028-.451-.027-.678,0-.1,0-.21.009-.315,0-.032.039-.343.012-.177l-1.579.593a11.127,11.127,0,0,1,3.4,2.242c1.1,1.066,2.122,2.211,3.171,3.319a1.14,1.14,0,0,0,1.521.012.939.939,0,0,0,.013-1.4l-.013-.012Z" transform="translate(-27.715 -46.703)" fill="#333"/><path d="M68.886,92.294c1.088-1,2.181-2.044,3.366-2.946a12.5,12.5,0,0,1,3.478-1.76l-1.361-.957a5.779,5.779,0,0,1-.338,2.7,6.352,6.352,0,0,1-.448,1.005,5.56,5.56,0,0,1-.319.518c-.048.068-.1.135-.149.2s-.041.054.008,0c-.034.039-.068.078-.1.116a17.15,17.15,0,0,1-5.511,3.6.96.96,0,0,0-.386,1.357,1.152,1.152,0,0,0,1.471.356,22.766,22.766,0,0,0,3.5-1.954,12.985,12.985,0,0,0,2.581-2.116,7.95,7.95,0,0,0,1.43-2.557,7.065,7.065,0,0,0,.414-3.231,1.076,1.076,0,0,0-1.361-.957,15.557,15.557,0,0,0-4.218,2.114,43.141,43.141,0,0,0-3.575,3.1c-.983.9.538,2.305,1.521,1.4Z" transform="translate(-36.967 -50.224)" fill="#333"/></g></svg>